<svg xmlns="http://www.w3.org/2000/svg" viewBox="0 0 420.2 517.9"><defs><style>.cls-1{fill:#302d40;}</style></defs><title>abstract-hero</title><g id="ëÎÓÈ_1" data-name="ëÎÓÈ 1"><polygon class="cls-1" points="273.75 167.72 269.69 161.86 250.46 142.63 250.47 144.44 273.75 167.72"/><polygon class="cls-1" points="258.25 166.38 254.19 160.52 250.57 156.9 250.58 158.71 258.25 166.38"/><polygon class="cls-1" points="266.58 89.78 262.52 83.92 249.92 71.32 249.93 73.13 266.58 89.78"/><polygon class="cls-1" points="277.53 98.93 281.59 104.79 305.39 128.58 301.32 122.72 277.53 98.93"/><polygon class="cls-1" points="331.08 154.28 327.02 148.42 316.65 138.05 320.71 143.91 331.08 154.28"/><polygon class="cls-1" points="344.19 167.38 347.04 170.25 348.86 170.26 340.12 161.52 344.19 167.38"/><polygon class="cls-1" points="340.45 149.5 361.31 170.36 363.12 170.37 336.39 143.63 340.45 149.5"/><polygon class="cls-1" points="297.58 104.83 301.65 110.69 332.63 141.67 328.56 135.81 297.58 104.83"/><polygon class="cls-1" points="286.32 95.36 282.25 89.5 254.96 62.21 259.03 68.07 286.32 95.36"/><polygon class="cls-1" points="254.19 63.24 250.13 57.37 249.81 57.05 249.82 58.86 254.19 63.24"/><polygon class="cls-1" points="326.7 121.59 375.58 170.47 377.39 170.49 322.63 115.72 326.7 121.59"/><polygon class="cls-1" points="259.55 54.44 320.84 115.73 316.78 109.87 255.49 48.58 259.55 54.44"/><polygon class="cls-1" points="387.06 153.64 404.11 170.7 405.93 170.71 383 147.78 387.06 153.64"/><polygon class="cls-1" points="373.9 138.69 315.06 79.84 319.12 85.71 377.96 144.55 373.9 138.69"/><polygon class="cls-1" points="273.71 40.29 310.15 76.73 306.09 70.88 269.64 34.42 273.71 40.29"/><polygon class="cls-1" points="256.85 23.43 252.79 17.57 249.48 14.26 249.5 16.08 256.85 23.43"/><polygon class="cls-1" points="333.77 114.51 369.11 149.84 365.05 143.98 329.71 108.64 333.77 114.51"/><polygon class="cls-1" points="316.69 97.43 327.92 108.65 323.86 102.79 312.63 91.56 316.69 97.43"/><polygon class="cls-1" points="286.92 67.66 282.86 61.8 255.51 34.44 259.57 40.3 286.92 67.66"/><polygon class="cls-1" points="249.77 30.51 249.6 30.26 249.6 30.34 249.77 30.51"/><polygon class="cls-1" points="418.38 170.81 420.2 170.82 409.65 160.28 413.71 166.14 418.38 170.81"/><polygon class="cls-1" points="406.78 159.21 402.71 153.34 373.06 123.69 377.12 129.55 406.78 159.21"/><polygon class="cls-1" points="367.04 119.47 362.98 113.61 334.99 85.62 339.05 91.48 367.04 119.47"/><polygon class="cls-1" points="294.9 47.33 290.84 41.47 269.66 20.29 273.72 26.15 294.9 47.33"/><polygon class="cls-1" points="327.92 80.35 323.86 74.48 302.67 53.3 306.74 59.16 327.92 80.35"/><polygon class="cls-1" points="263.93 16.35 259.86 10.49 249.37 0 249.38 1.81 263.93 16.35"/><polygon class="cls-1" points="326.3 163.65 332.78 170.13 334.59 170.15 322.23 157.79 326.3 163.65"/><polygon class="cls-1" points="311.28 148.64 307.22 142.77 283.43 118.98 287.49 124.85 311.28 148.64"/><polygon class="cls-1" points="261.79 99.14 272.16 109.51 268.1 103.66 257.73 93.29 261.79 99.14"/><polygon class="cls-1" points="263.29 114.8 259.22 108.93 250.13 99.84 250.15 101.65 263.29 114.8"/><polygon class="cls-1" points="291.23 142.74 287.17 136.88 263.49 113.19 267.55 119.06 291.23 142.74"/><polygon class="cls-1" points="298.65 150.16 318.51 170.02 320.32 170.03 294.59 144.3 298.65 150.16"/><polygon class="cls-1" points="266.18 131.84 262.12 125.98 250.24 114.11 250.25 115.92 266.18 131.84"/><polygon class="cls-1" points="272.03 137.7 304.24 169.91 306.06 169.92 267.97 131.84 272.03 137.7"/><polygon class="cls-1" points="256.78 136.6 252.72 130.74 250.35 128.37 250.36 130.18 256.78 136.6"/><polygon class="cls-1" points="272.43 152.25 289.98 169.79 291.79 169.81 268.37 146.38 272.43 152.25"/><polygon class="cls-1" points="129.14 455.02 124.19 450.07 125.13 449.13 131.02 455.02 129.14 455.02"/><polygon class="cls-1" points="136.76 455.02 128 446.26 128.94 445.32 138.64 455.02 136.76 455.02"/><polygon class="cls-1" points="144.37 455.02 131.81 442.45 132.75 441.51 146.25 455.02 144.37 455.02"/><polygon class="cls-1" points="151.99 455.02 135.62 438.65 136.55 437.71 153.87 455.02 151.99 455.02"/><polygon class="cls-1" points="159.6 455.02 139.42 434.84 140.36 433.9 161.48 455.02 159.6 455.02"/><polygon class="cls-1" points="167.21 455.02 143.23 431.03 144.17 430.09 169.1 455.02 167.21 455.02"/><polygon class="cls-1" points="174.83 455.02 147.04 427.22 147.97 426.29 176.71 455.02 174.83 455.02"/><polygon class="cls-1" points="182.44 455.02 150.84 423.42 151.78 422.48 184.32 455.02 182.44 455.02"/><polygon class="cls-1" points="190.06 455.02 154.65 419.61 155.59 418.67 191.94 455.02 190.06 455.02"/><polygon class="cls-1" points="197.67 455.02 158.46 415.8 159.4 414.86 199.55 455.02 197.67 455.02"/><polygon class="cls-1" points="205.29 455.02 162.26 412 163.21 411.06 207.17 455.02 205.29 455.02"/><polygon class="cls-1" points="212.9 455.02 166.07 408.19 167.01 407.25 214.78 455.02 212.9 455.02"/><polygon class="cls-1" points="220.52 455.02 169.88 404.38 170.82 403.44 222.4 455.02 220.52 455.02"/><polygon class="cls-1" points="228.13 455.02 173.69 400.58 174.63 399.63 230.01 455.02 228.13 455.02"/><polygon class="cls-1" points="235.75 455.02 177.49 396.77 178.43 395.83 237.63 455.02 235.75 455.02"/><polygon class="cls-1" points="243.36 455.02 181.3 392.96 182.24 392.02 245.24 455.02 243.36 455.02"/><polygon class="cls-1" points="250.99 455.02 250.97 455.02 185.11 389.15 186.05 388.21 250.99 453.15 250.99 455.02"/><polygon class="cls-1" points="250.99 447.42 188.92 385.35 189.86 384.4 250.99 445.54 250.99 447.42"/><polygon class="cls-1" points="250.99 439.8 192.72 381.54 193.66 380.6 250.99 437.92 250.99 439.8"/><polygon class="cls-1" points="250.99 432.19 196.53 377.73 197.47 376.79 250.99 430.31 250.99 432.19"/><polygon class="cls-1" points="250.99 424.57 200.34 373.92 201.28 372.98 250.99 422.7 250.99 424.57"/><polygon class="cls-1" points="250.99 416.96 204.15 370.12 205.08 369.18 250.99 415.08 250.99 416.96"/><polygon class="cls-1" points="250.99 409.35 207.95 366.31 208.89 365.37 250.99 407.47 250.99 409.35"/><polygon class="cls-1" points="250.99 401.73 211.76 362.5 212.7 361.56 250.99 399.85 250.99 401.73"/><polygon class="cls-1" points="250.99 394.12 215.57 358.7 216.51 357.75 250.99 392.24 250.99 394.12"/><polygon class="cls-1" points="250.99 386.5 219.37 354.89 220.31 353.95 250.99 384.62 250.99 386.5"/><polygon class="cls-1" points="250.99 378.89 223.18 351.08 224.12 350.14 250.99 377.01 250.99 378.89"/><polygon class="cls-1" points="250.99 371.27 226.99 347.27 227.93 346.33 250.99 369.39 250.99 371.27"/><polygon class="cls-1" points="250.99 363.66 230.79 343.46 231.74 342.53 250.99 361.78 250.99 363.66"/><polygon class="cls-1" points="250.99 356.05 234.6 339.66 235.54 338.72 250.99 354.16 250.99 356.05"/><polygon class="cls-1" points="250.99 348.43 238.41 335.85 239.35 334.91 250.99 346.55 250.99 348.43"/><polygon class="cls-1" points="250.99 340.82 242.22 332.05 243.16 331.1 250.99 338.94 250.99 340.82"/><polygon class="cls-1" points="246.96 327.3 250.99 331.32 250.99 333.2 246.03 328.24 246.96 327.3"/><polygon class="cls-1" points="257.01 230.76 251.08 236.69 251.08 238.34 257.84 231.58 257.01 230.76"/><polygon class="cls-1" points="267.22 240.96 251.08 257.1 251.08 258.75 268.04 241.79 267.22 240.96"/><polygon class="cls-1" points="277.42 251.17 251.08 277.51 251.08 279.16 278.25 252 277.42 251.17"/><polygon class="cls-1" points="287.63 261.37 251.08 297.92 251.08 299.57 288.45 262.2 287.63 261.37"/><polygon class="cls-1" points="297.83 271.58 251.08 318.32 251.08 319.98 298.66 272.4 297.83 271.58"/><polygon class="cls-1" points="308.04 281.78 251.08 338.74 251.08 340.39 308.86 282.61 308.04 281.78"/><polygon class="cls-1" points="318.24 291.98 260.57 349.65 262.23 349.65 319.07 292.81 318.24 291.98"/><polygon class="cls-1" points="328.45 302.19 280.98 349.65 282.63 349.65 329.27 303.01 328.45 302.19"/><polygon class="cls-1" points="338.65 312.39 301.39 349.65 303.04 349.65 339.48 313.22 338.65 312.39"/><polygon class="cls-1" points="348.85 322.6 321.8 349.65 323.45 349.65 349.68 323.42 348.85 322.6"/><polygon class="cls-1" points="359.06 332.8 342.2 349.65 343.86 349.65 359.88 333.63 359.06 332.8"/><polygon class="cls-1" points="364.27 349.65 370.09 343.83 369.26 343 362.61 349.65 364.27 349.65"/><polygon class="cls-1" points="250.49 116.81 195.53 116.81 186.55 108.01 250.49 108.01 250.49 116.81"/><polygon class="cls-1" points="250.49 135.94 214.51 135.94 205.95 127.13 250.49 127.13 250.49 135.94"/><polygon class="cls-1" points="250.49 155.06 233.7 155.06 225 146.25 250.49 146.25 250.49 155.06"/><path class="cls-1" d="M149.61,331.76a1.85,1.85,0,1,1-2.62,0A1.86,1.86,0,0,1,149.61,331.76Z" transform="translate(-63.02 -28.01)"/><path class="cls-1" d="M155.38,326a1.85,1.85,0,1,1-2.61,0A1.84,1.84,0,0,1,155.38,326Z" transform="translate(-63.02 -28.01)"/><path class="cls-1" d="M161.16,320.21a1.85,1.85,0,0,1-2.62,2.62,1.85,1.85,0,0,1,2.62-2.62Z" transform="translate(-63.02 -28.01)"/><path class="cls-1" d="M166.93,314.44a1.85,1.85,0,1,1-2.61,0A1.85,1.85,0,0,1,166.93,314.44Z" transform="translate(-63.02 -28.01)"/><path class="cls-1" d="M172.71,308.66a1.86,1.86,0,0,1,0,2.62,1.84,1.84,0,0,1-2.61,0,1.82,1.82,0,0,1,0-2.6A1.84,1.84,0,0,1,172.71,308.66Z" transform="translate(-63.02 -28.01)"/><path class="cls-1" d="M178.48,302.89a1.85,1.85,0,1,1-2.61,0A1.83,1.83,0,0,1,178.48,302.89Z" transform="translate(-63.02 -28.01)"/><path class="cls-1" d="M184.26,297.11a1.85,1.85,0,1,1-2.61,0A1.86,1.86,0,0,1,184.26,297.11Z" transform="translate(-63.02 -28.01)"/><path class="cls-1" d="M190,291.34a1.85,1.85,0,1,1-2.62,0A1.86,1.86,0,0,1,190,291.34Z" transform="translate(-63.02 -28.01)"/><path class="cls-1" d="M195.81,285.56a1.85,1.85,0,1,1-2.61,0A1.85,1.85,0,0,1,195.81,285.56Z" transform="translate(-63.02 -28.01)"/><path class="cls-1" d="M201.59,279.79a1.85,1.85,0,1,1-2.62,0A1.85,1.85,0,0,1,201.59,279.79Z" transform="translate(-63.02 -28.01)"/><path class="cls-1" d="M207.36,274a1.85,1.85,0,1,1-2.61,0A1.85,1.85,0,0,1,207.36,274Z" transform="translate(-63.02 -28.01)"/><path class="cls-1" d="M213.13,268.24a1.85,1.85,0,1,1-2.61,0A1.83,1.83,0,0,1,213.13,268.24Z" transform="translate(-63.02 -28.01)"/><path class="cls-1" d="M218.91,262.46a1.85,1.85,0,1,1-2.61,0A1.85,1.85,0,0,1,218.91,262.46Z" transform="translate(-63.02 -28.01)"/><path class="cls-1" d="M224.69,256.68a1.85,1.85,0,0,1-2.62,2.62,1.85,1.85,0,0,1,2.62-2.62Z" transform="translate(-63.02 -28.01)"/><path class="cls-1" d="M230.46,250.91a1.85,1.85,0,1,1-2.61,0A1.84,1.84,0,0,1,230.46,250.91Z" transform="translate(-63.02 -28.01)"/><path class="cls-1" d="M236.24,245.13a1.85,1.85,0,1,1-2.61,0A1.86,1.86,0,0,1,236.24,245.13Z" transform="translate(-63.02 -28.01)"/><path class="cls-1" d="M242,239.36a1.85,1.85,0,1,1-2.61,0A1.85,1.85,0,0,1,242,239.36Z" transform="translate(-63.02 -28.01)"/><path class="cls-1" d="M149.66,320.27a1.85,1.85,0,1,1-2.61,0A1.85,1.85,0,0,1,149.66,320.27Z" transform="translate(-63.02 -28.01)"/><path class="cls-1" d="M155.43,314.49a1.85,1.85,0,1,1-2.61,0A1.85,1.85,0,0,1,155.43,314.49Z" transform="translate(-63.02 -28.01)"/><path class="cls-1" d="M161.21,308.72a1.85,1.85,0,1,1-2.61,0A1.85,1.85,0,0,1,161.21,308.72Z" transform="translate(-63.02 -28.01)"/><path class="cls-1" d="M167,302.94a1.85,1.85,0,1,1-2.62,0A1.85,1.85,0,0,1,167,302.94Z" transform="translate(-63.02 -28.01)"/><path class="cls-1" d="M172.76,297.16a1.85,1.85,0,1,1-2.61,0A1.86,1.86,0,0,1,172.76,297.16Z" transform="translate(-63.02 -28.01)"/><path class="cls-1" d="M178.54,291.39a1.85,1.85,0,1,1-2.62,0A1.85,1.85,0,0,1,178.54,291.39Z" transform="translate(-63.02 -28.01)"/><path class="cls-1" d="M184.31,285.61a1.85,1.85,0,1,1-2.61,0A1.86,1.86,0,0,1,184.31,285.61Z" transform="translate(-63.02 -28.01)"/><path class="cls-1" d="M190.09,279.84a1.85,1.85,0,1,1-2.62,0A1.85,1.85,0,0,1,190.09,279.84Z" transform="translate(-63.02 -28.01)"/><path class="cls-1" d="M195.86,274.06a1.85,1.85,0,1,1-2.61,0A1.86,1.86,0,0,1,195.86,274.06Z" transform="translate(-63.02 -28.01)"/><path class="cls-1" d="M201.64,268.29a1.85,1.85,0,1,1-2.62,0A1.85,1.85,0,0,1,201.64,268.29Z" transform="translate(-63.02 -28.01)"/><path class="cls-1" d="M207.41,262.51a1.85,1.85,0,1,1-2.61,0A1.86,1.86,0,0,1,207.41,262.51Z" transform="translate(-63.02 -28.01)"/><path class="cls-1" d="M213.19,256.74a1.85,1.85,0,1,1-2.61,0A1.85,1.85,0,0,1,213.19,256.74Z" transform="translate(-63.02 -28.01)"/><path class="cls-1" d="M219,251a1.85,1.85,0,1,1-2.61,0A1.83,1.83,0,0,1,219,251Z" transform="translate(-63.02 -28.01)"/><path class="cls-1" d="M224.74,245.18a1.85,1.85,0,1,1-2.61,0A1.86,1.86,0,0,1,224.74,245.18Z" transform="translate(-63.02 -28.01)"/><path class="cls-1" d="M230.52,239.41a1.85,1.85,0,1,1-2.62,0A1.85,1.85,0,0,1,230.52,239.41Z" transform="translate(-63.02 -28.01)"/><path class="cls-1" d="M149.71,308.77a1.85,1.85,0,1,1-2.61,0A1.85,1.85,0,0,1,149.71,308.77Z" transform="translate(-63.02 -28.01)"/><path class="cls-1" d="M155.49,303a1.85,1.85,0,1,1-2.62,0A1.85,1.85,0,0,1,155.49,303Z" transform="translate(-63.02 -28.01)"/><path class="cls-1" d="M161.26,297.22a1.85,1.85,0,1,1-2.61,0A1.85,1.85,0,0,1,161.26,297.22Z" transform="translate(-63.02 -28.01)"/><path class="cls-1" d="M167,291.44a1.85,1.85,0,1,1-2.62,0A1.85,1.85,0,0,1,167,291.44Z" transform="translate(-63.02 -28.01)"/><path class="cls-1" d="M172.81,285.66a1.85,1.85,0,1,1-2.61,0A1.86,1.86,0,0,1,172.81,285.66Z" transform="translate(-63.02 -28.01)"/><path class="cls-1" d="M178.59,279.89a1.85,1.85,0,1,1-2.61,0A1.85,1.85,0,0,1,178.59,279.89Z" transform="translate(-63.02 -28.01)"/><path class="cls-1" d="M184.36,274.11a1.85,1.85,0,1,1-2.61,0A1.86,1.86,0,0,1,184.36,274.11Z" transform="translate(-63.02 -28.01)"/><path class="cls-1" d="M190.14,268.34a1.85,1.85,0,1,1-2.61,0A1.85,1.85,0,0,1,190.14,268.34Z" transform="translate(-63.02 -28.01)"/><path class="cls-1" d="M195.92,262.56a1.85,1.85,0,1,1-2.62,0A1.86,1.86,0,0,1,195.92,262.56Z" transform="translate(-63.02 -28.01)"/><path class="cls-1" d="M201.69,256.79a1.85,1.85,0,1,1-2.61,0A1.85,1.85,0,0,1,201.69,256.79Z" transform="translate(-63.02 -28.01)"/><path class="cls-1" d="M207.46,251a1.85,1.85,0,1,1-2.61,0A1.84,1.84,0,0,1,207.46,251Z" transform="translate(-63.02 -28.01)"/><path class="cls-1" d="M213.24,245.24a1.85,1.85,0,1,1-2.61,0A1.85,1.85,0,0,1,213.24,245.24Z" transform="translate(-63.02 -28.01)"/><path class="cls-1" d="M219,239.46a1.85,1.85,0,1,1-2.62,0A1.85,1.85,0,0,1,219,239.46Z" transform="translate(-63.02 -28.01)"/><path class="cls-1" d="M149.76,297.27a1.85,1.85,0,1,1-2.61,0A1.85,1.85,0,0,1,149.76,297.27Z" transform="translate(-63.02 -28.01)"/><path class="cls-1" d="M155.54,291.49a1.86,1.86,0,0,1,0,2.62,1.85,1.85,0,1,1,0-2.62Z" transform="translate(-63.02 -28.01)"/><path class="cls-1" d="M161.31,285.72a1.85,1.85,0,1,1-2.61,0A1.85,1.85,0,0,1,161.31,285.72Z" transform="translate(-63.02 -28.01)"/><path class="cls-1" d="M167.09,279.94a1.85,1.85,0,1,1-2.61,0A1.85,1.85,0,0,1,167.09,279.94Z" transform="translate(-63.02 -28.01)"/><path class="cls-1" d="M172.86,274.17a1.85,1.85,0,1,1-2.61,0A1.84,1.84,0,0,1,172.86,274.17Z" transform="translate(-63.02 -28.01)"/><path class="cls-1" d="M178.64,268.39a1.85,1.85,0,1,1-2.61,0A1.85,1.85,0,0,1,178.64,268.39Z" transform="translate(-63.02 -28.01)"/><path class="cls-1" d="M184.42,262.61a1.85,1.85,0,1,1-2.62,2.62,1.85,1.85,0,0,1,2.62-2.62Z" transform="translate(-63.02 -28.01)"/><path class="cls-1" d="M190.19,256.84a1.85,1.85,0,1,1-2.61,0A1.85,1.85,0,0,1,190.19,256.84Z" transform="translate(-63.02 -28.01)"/><path class="cls-1" d="M196,251.07a1.85,1.85,0,1,1-2.61,0A1.83,1.83,0,0,1,196,251.07Z" transform="translate(-63.02 -28.01)"/><path class="cls-1" d="M201.74,245.29a1.85,1.85,0,1,1-2.61,0A1.85,1.85,0,0,1,201.74,245.29Z" transform="translate(-63.02 -28.01)"/><path class="cls-1" d="M207.52,239.51a1.85,1.85,0,1,1-2.62,0A1.86,1.86,0,0,1,207.52,239.51Z" transform="translate(-63.02 -28.01)"/><path class="cls-1" d="M149.81,285.77a1.85,1.85,0,1,1-2.61,0A1.85,1.85,0,0,1,149.81,285.77Z" transform="translate(-63.02 -28.01)"/><path class="cls-1" d="M155.59,280a1.85,1.85,0,1,1-2.61,0A1.86,1.86,0,0,1,155.59,280Z" transform="translate(-63.02 -28.01)"/><path class="cls-1" d="M161.36,274.22a1.84,1.84,0,0,1,0,2.61,1.85,1.85,0,1,1,0-2.61Z" transform="translate(-63.02 -28.01)"/><path class="cls-1" d="M167.14,268.44a1.85,1.85,0,1,1-2.61,0A1.85,1.85,0,0,1,167.14,268.44Z" transform="translate(-63.02 -28.01)"/><path class="cls-1" d="M172.91,262.67a1.85,1.85,0,1,1-2.61,0A1.83,1.83,0,0,1,172.91,262.67Z" transform="translate(-63.02 -28.01)"/><path class="cls-1" d="M178.69,256.89a1.85,1.85,0,1,1-2.61,0A1.85,1.85,0,0,1,178.69,256.89Z" transform="translate(-63.02 -28.01)"/><path class="cls-1" d="M184.47,251.11a1.85,1.85,0,1,1-2.62,0A1.85,1.85,0,0,1,184.47,251.11Z" transform="translate(-63.02 -28.01)"/><path class="cls-1" d="M190.24,245.34a1.85,1.85,0,1,1-2.61,0A1.86,1.86,0,0,1,190.24,245.34Z" transform="translate(-63.02 -28.01)"/><path class="cls-1" d="M196,239.56a1.85,1.85,0,1,1-2.61,0A1.86,1.86,0,0,1,196,239.56Z" transform="translate(-63.02 -28.01)"/><path class="cls-1" d="M149.87,274.27a1.85,1.85,0,1,1-2.62,0A1.85,1.85,0,0,1,149.87,274.27Z" transform="translate(-63.02 -28.01)"/><path class="cls-1" d="M155.64,268.49a1.85,1.85,0,1,1-2.61,0A1.85,1.85,0,0,1,155.64,268.49Z" transform="translate(-63.02 -28.01)"/><path class="cls-1" d="M161.41,262.72a1.85,1.85,0,1,1-2.61,0A1.83,1.83,0,0,1,161.41,262.72Z" transform="translate(-63.02 -28.01)"/><path class="cls-1" d="M167.19,256.94a1.85,1.85,0,1,1-2.61,0A1.86,1.86,0,0,1,167.19,256.94Z" transform="translate(-63.02 -28.01)"/><path class="cls-1" d="M173,251.17a1.85,1.85,0,1,1-2.62,0A1.85,1.85,0,0,1,173,251.17Z" transform="translate(-63.02 -28.01)"/><path class="cls-1" d="M178.74,245.39a1.85,1.85,0,1,1-2.61,0A1.85,1.85,0,0,1,178.74,245.39Z" transform="translate(-63.02 -28.01)"/><path class="cls-1" d="M184.52,239.62a1.85,1.85,0,1,1-2.62,0A1.85,1.85,0,0,1,184.52,239.62Z" transform="translate(-63.02 -28.01)"/><path class="cls-1" d="M149.92,262.77a1.85,1.85,0,1,1-2.61,0A1.85,1.85,0,0,1,149.92,262.77Z" transform="translate(-63.02 -28.01)"/><path class="cls-1" d="M155.69,257a1.85,1.85,0,1,1-2.61,0A1.86,1.86,0,0,1,155.69,257Z" transform="translate(-63.02 -28.01)"/><path class="cls-1" d="M161.47,251.22a1.85,1.85,0,1,1-2.61,0A1.85,1.85,0,0,1,161.47,251.22Z" transform="translate(-63.02 -28.01)"/><path class="cls-1" d="M167.24,245.44a1.85,1.85,0,1,1-2.61,0A1.86,1.86,0,0,1,167.24,245.44Z" transform="translate(-63.02 -28.01)"/><path class="cls-1" d="M173,239.67a1.85,1.85,0,1,1-2.61,0A1.85,1.85,0,0,1,173,239.67Z" transform="translate(-63.02 -28.01)"/><path class="cls-1" d="M150,251.27a1.85,1.85,0,1,1-2.62,0A1.85,1.85,0,0,1,150,251.27Z" transform="translate(-63.02 -28.01)"/><path class="cls-1" d="M155.74,245.5a1.85,1.85,0,1,1-2.61,0A1.85,1.85,0,0,1,155.74,245.5Z" transform="translate(-63.02 -28.01)"/><path class="cls-1" d="M161.52,239.72a1.85,1.85,0,1,1-2.61,0A1.85,1.85,0,0,1,161.52,239.72Z" transform="translate(-63.02 -28.01)"/><path class="cls-1" d="M150,239.77a1.85,1.85,0,1,1-2.61,0A1.86,1.86,0,0,1,150,239.77Z" transform="translate(-63.02 -28.01)"/><polygon points="25.83 429.24 23.21 431.86 20.6 429.24 20.32 429.51 22.94 432.13 20.32 434.74 20.6 435.01 23.21 432.4 25.82 435.01 26.1 434.74 23.48 432.13 26.1 429.51 25.83 429.24"/><polygon points="19.05 436.02 16.44 438.63 13.82 436.02 13.55 436.29 16.16 438.9 13.55 441.51 13.82 441.79 16.44 439.18 19.05 441.79 19.32 441.51 16.71 438.9 19.32 436.29 19.05 436.02"/><polygon points="12.28 442.79 9.66 445.41 7.05 442.79 6.78 443.06 9.39 445.68 6.78 448.29 7.05 448.56 9.66 445.95 12.28 448.56 12.55 448.29 9.93 445.68 12.55 443.06 12.28 442.79"/><polygon points="5.5 449.57 2.88 452.18 0.27 449.57 0 449.84 2.62 452.45 0 455.06 0.27 455.34 2.88 452.73 5.5 455.34 5.77 455.06 3.16 452.45 5.77 449.84 5.5 449.57"/><polygon points="32.6 422.46 29.99 425.08 27.37 422.47 27.1 422.74 29.72 425.35 27.1 427.97 27.37 428.24 29.99 425.63 32.6 428.24 32.87 427.96 30.26 425.35 32.87 422.74 32.6 422.46"/><polygon points="39.38 415.69 36.76 418.31 34.15 415.69 33.88 415.96 36.49 418.58 33.88 421.19 34.15 421.46 36.76 418.85 39.38 421.46 39.65 421.19 37.03 418.58 39.65 415.96 39.38 415.69"/><polygon points="46.15 408.92 43.54 411.53 40.92 408.92 40.65 409.19 43.27 411.8 40.65 414.42 40.92 414.69 43.54 412.07 46.15 414.69 46.42 414.41 43.81 411.8 46.42 409.19 46.15 408.92"/><polygon points="19.2 422.62 16.59 425.23 13.97 422.62 13.7 422.89 16.31 425.5 13.7 428.12 13.97 428.39 16.59 425.77 19.2 428.39 19.47 428.12 16.86 425.5 19.47 422.89 19.2 422.62"/><polygon points="12.42 429.39 9.81 432 7.2 429.39 6.92 429.66 9.54 432.28 6.92 434.89 7.2 435.16 9.81 432.55 12.42 435.16 12.7 434.89 10.08 432.28 12.7 429.66 12.42 429.39"/><polygon points="5.65 436.17 3.04 438.78 0.42 436.17 0.15 436.44 2.77 439.05 0.15 441.67 0.42 441.94 3.04 439.32 5.65 441.94 5.92 441.67 3.31 439.05 5.92 436.44 5.65 436.17"/><polygon points="25.97 415.84 23.36 418.45 20.75 415.84 20.48 416.11 23.09 418.73 20.48 421.34 20.75 421.61 23.36 419 25.97 421.61 26.25 421.34 23.63 418.73 26.25 416.11 25.97 415.84"/><polygon points="32.75 409.07 30.14 411.68 27.52 409.06 27.25 409.34 29.86 411.95 27.25 414.56 27.52 414.84 30.14 412.22 32.75 414.84 33.02 414.56 30.41 411.95 33.02 409.34 32.75 409.07"/><polygon points="12.57 415.99 9.96 418.6 7.35 415.99 7.07 416.26 9.69 418.88 7.07 421.49 7.35 421.76 9.96 419.15 12.57 421.76 12.85 421.49 10.23 418.88 12.85 416.26 12.57 415.99"/><polygon points="5.8 422.76 3.19 425.38 0.57 422.76 0.3 423.04 2.91 425.65 0.3 428.26 0.57 428.54 3.19 425.92 5.8 428.54 6.07 428.26 3.46 425.65 6.07 423.04 5.8 422.76"/><polygon points="19.35 409.21 16.73 411.83 14.12 409.21 13.85 409.49 16.46 412.1 13.85 414.71 14.12 414.99 16.73 412.37 19.35 414.99 19.62 414.71 17.01 412.1 19.62 409.49 19.35 409.21"/><polygon points="5.95 409.36 3.33 411.98 0.72 409.36 0.45 409.64 3.06 412.25 0.45 414.86 0.72 415.14 3.33 412.52 5.95 415.14 6.22 414.86 3.6 412.25 6.22 409.64 5.95 409.36"/><polygon class="cls-1" points="162.1 517.9 152.73 508.53 162.1 508.53 162.1 517.9"/><polygon class="cls-1" points="144.36 500.15 134.99 490.78 144.36 490.78 144.36 500.15"/><polygon class="cls-1" points="126.61 482.41 117.24 473.04 126.61 473.04 126.61 482.41"/><polygon class="cls-1" points="108.87 464.67 99.5 455.3 108.87 455.3 108.87 464.67"/><polygon class="cls-1" points="179.88 517.87 170.51 508.49 179.88 508.49 179.88 517.87"/><polygon class="cls-1" points="162.14 500.12 152.77 490.75 162.14 490.75 162.14 500.12"/><polygon class="cls-1" points="144.39 482.38 135.02 473 144.39 473 144.39 482.38"/><polygon class="cls-1" points="126.65 464.63 117.28 455.26 126.65 455.26 126.65 464.63"/><polygon class="cls-1" points="197.66 517.83 188.29 508.46 197.66 508.46 197.66 517.83"/><polygon class="cls-1" points="179.92 500.08 170.54 490.71 179.92 490.71 179.92 500.08"/><polygon class="cls-1" points="162.17 482.34 152.8 472.97 162.17 472.97 162.17 482.34"/><polygon class="cls-1" points="144.43 464.6 135.06 455.22 144.43 455.22 144.43 464.6"/><polygon class="cls-1" points="215.44 517.79 206.07 508.42 215.44 508.42 215.44 517.79"/><polygon class="cls-1" points="197.7 500.05 188.32 490.67 197.7 490.68 197.7 500.05"/><polygon class="cls-1" points="179.95 482.3 170.58 472.93 179.95 472.93 179.95 482.3"/><polygon class="cls-1" points="162.21 464.56 152.84 455.19 162.21 455.19 162.21 464.56"/><polygon class="cls-1" points="233.22 517.76 223.85 508.38 233.22 508.38 233.22 517.76"/><polygon class="cls-1" points="215.48 500.01 206.11 490.64 215.48 490.64 215.48 500.01"/><polygon class="cls-1" points="197.73 482.27 188.36 472.89 197.74 472.89 197.73 482.27"/><polygon class="cls-1" points="179.99 464.52 170.62 455.15 179.99 455.15 179.99 464.52"/><polygon class="cls-1" points="251.01 517.72 241.63 508.35 251.01 508.35 251.01 517.72"/><polygon class="cls-1" points="233.26 499.98 223.89 490.61 233.26 490.61 233.26 499.98"/><polygon class="cls-1" points="215.51 482.23 206.14 472.86 215.52 472.86 215.51 482.23"/><polygon class="cls-1" points="197.77 464.49 188.4 455.11 197.77 455.11 197.77 464.49"/><polygon class="cls-1" points="251.04 499.94 241.67 490.57 251.04 490.57 251.04 499.94"/><polygon class="cls-1" points="233.29 482.2 223.92 472.82 233.3 472.83 233.29 482.2"/><polygon class="cls-1" points="215.55 464.45 206.18 455.08 215.55 455.08 215.55 464.45"/><polygon class="cls-1" points="251.08 482.16 241.7 472.79 251.08 472.79 251.08 482.16"/><polygon class="cls-1" points="233.33 464.42 223.96 455.04 233.33 455.04 233.33 464.42"/><polygon class="cls-1" points="251.1 464.36 241.72 454.99 251.1 454.99 251.1 464.36"/><polygon class="cls-1" points="238.82 322.49 235.5 325.81 251.04 325.81 251.04 310.27 247.72 313.59 247.72 322.49 238.82 322.49"/><polygon class="cls-1" points="238.73 249.4 235.41 252.72 250.95 252.72 250.95 237.18 247.63 240.5 247.63 249.4 238.73 249.4"/><polygon class="cls-1" points="220.48 267.65 217.16 270.97 232.7 270.97 232.7 255.43 229.38 258.75 229.38 267.65 220.48 267.65"/><polygon class="cls-1" points="202.23 285.9 198.91 289.22 214.45 289.22 214.45 273.68 211.13 277 211.13 285.9 202.23 285.9"/><polygon class="cls-1" points="183.98 304.15 180.66 307.47 196.2 307.48 196.2 291.93 192.88 295.25 192.88 304.15 183.98 304.15"/><polygon class="cls-1" points="165.73 322.41 162.41 325.73 177.95 325.73 177.95 310.18 174.63 313.5 174.63 322.41 165.73 322.41"/><polygon class="cls-1" points="229.63 276.8 226.31 280.12 241.85 280.12 241.85 264.58 238.53 267.9 238.53 276.8 229.63 276.8"/><polygon class="cls-1" points="211.37 295.05 208.06 298.37 223.6 298.37 223.6 282.83 220.28 286.15 220.28 295.05 211.37 295.05"/><polygon class="cls-1" points="193.13 313.3 189.81 316.62 205.35 316.62 205.35 301.08 202.03 304.4 202.03 313.3 193.13 313.3"/><polygon class="cls-1" points="238.77 285.95 235.46 289.27 251 289.27 251 273.73 247.68 277.05 247.68 285.95 238.77 285.95"/><polygon class="cls-1" points="220.52 304.2 217.21 307.52 232.75 307.52 232.75 291.98 229.43 295.29 229.43 304.2 220.52 304.2"/><polygon class="cls-1" points="202.27 322.45 198.96 325.77 214.5 325.77 214.5 310.23 211.18 313.55 211.18 322.45 202.27 322.45"/><polygon class="cls-1" points="229.67 313.35 226.35 316.67 241.89 316.67 241.89 301.12 238.58 304.44 238.58 313.35 229.67 313.35"/><polygon class="cls-1" points="247.88 258.55 244.56 261.87 251.04 261.87 251.04 258.55 247.88 258.55"/><polygon class="cls-1" points="244.6 298.42 251.04 298.42 251.04 295.1 247.92 295.1 244.6 298.42"/><polygon class="cls-1" points="187.1 319.33 183.78 322.65 183.78 325.79 187.1 325.79 187.1 319.33"/><polygon class="cls-1" points="223.64 319.37 220.32 322.69 220.32 325.84 223.64 325.84 223.64 319.37"/><path class="cls-1" d="M442.06,198.75h-.79a10.15,10.15,0,0,1-1.09,1.3,9.49,9.49,0,0,1-.82.73v.82a12,12,0,0,0,1.29-1.09A11.11,11.11,0,0,0,442.06,198.75Z" transform="translate(-63.02 -28.01)"/><path class="cls-1" d="M444.88,198.75h-.73a11.8,11.8,0,0,1-2.22,3,11.68,11.68,0,0,1-2.57,2v.75a12.64,12.64,0,0,0,5.52-5.75Z" transform="translate(-63.02 -28.01)"/><path class="cls-1" d="M447.56,198.75h-.7a14.53,14.53,0,0,1-7.5,7.77v.72a15.28,15.28,0,0,0,4.79-3.23A15,15,0,0,0,447.56,198.75Z" transform="translate(-63.02 -28.01)"/><path class="cls-1" d="M450.19,198.75h-.69a17,17,0,0,1-10.14,10.44v.7a17.54,17.54,0,0,0,10.84-11.14Z" transform="translate(-63.02 -28.01)"/><path class="cls-1" d="M452.77,198.76h-.68a19.42,19.42,0,0,1-12.74,13.06v.69a20,20,0,0,0,13.42-13.74Z" transform="translate(-63.02 -28.01)"/><path class="cls-1" d="M455.33,198.76h-.68a21.87,21.87,0,0,1-15.3,15.63v.68a22.58,22.58,0,0,0,16-16.31Z" transform="translate(-63.02 -28.01)"/><path class="cls-1" d="M457.86,198.76h-.66A24.36,24.36,0,0,1,439.35,217v.68a25,25,0,0,0,18.52-18.87Z" transform="translate(-63.02 -28.01)"/><path class="cls-1" d="M460.39,198.76h-.66a26.81,26.81,0,0,1-20.39,20.73v.67a27.46,27.46,0,0,0,21.05-21.4Z" transform="translate(-63.02 -28.01)"/><path class="cls-1" d="M462.91,198.77h-.66A29.27,29.27,0,0,1,439.34,222v.67a29.94,29.94,0,0,0,23.57-23.92Z" transform="translate(-63.02 -28.01)"/><path class="cls-1" d="M465.42,198.77h-.66a31.74,31.74,0,0,1-25.42,25.77v.67a32.41,32.41,0,0,0,26.08-26.44Z" transform="translate(-63.02 -28.01)"/><path class="cls-1" d="M467.93,198.77h-.67a34.17,34.17,0,0,1-27.93,28.28v.66a34.85,34.85,0,0,0,28.6-28.94Z" transform="translate(-63.02 -28.01)"/><path class="cls-1" d="M470.43,198.77h-.66a36.66,36.66,0,0,1-30.44,30.79v.66a37.32,37.32,0,0,0,31.1-31.45Z" transform="translate(-63.02 -28.01)"/><path class="cls-1" d="M472.93,198.77h-.66a39.15,39.15,0,0,1-32.94,33.3v.66a39.81,39.81,0,0,0,33.6-34Z" transform="translate(-63.02 -28.01)"/><path class="cls-1" d="M475.43,198.78h-.67a41.57,41.57,0,0,1-5.51,15.9l1.69-1.7A42.35,42.35,0,0,0,475.43,198.78Z" transform="translate(-63.02 -28.01)"/><path class="cls-1" d="M439.33,234.57v.66a42.08,42.08,0,0,0,13.79-4.43l1.68-1.68A41.49,41.49,0,0,1,439.33,234.57Z" transform="translate(-63.02 -28.01)"/><path class="cls-1" d="M439.32,237.07v.66a45.5,45.5,0,0,0,9-2.16l1.1-1.1A44.77,44.77,0,0,1,439.32,237.07Z" transform="translate(-63.02 -28.01)"/><path class="cls-1" d="M477.92,198.78h-.66a44.11,44.11,0,0,1-2.66,10.53l1.1-1.09A45,45,0,0,0,477.92,198.78Z" transform="translate(-63.02 -28.01)"/><path class="cls-1" d="M439.32,239.56v.66a49.21,49.21,0,0,0,5.37-1l.91-.91A48.08,48.08,0,0,1,439.32,239.56Z" transform="translate(-63.02 -28.01)"/><path class="cls-1" d="M480.41,198.78h-.66a46.33,46.33,0,0,1-1.29,6.68l.92-.92A48.93,48.93,0,0,0,480.41,198.78Z" transform="translate(-63.02 -28.01)"/><path class="cls-1" d="M482.89,198.78h-.65c-.13,1.14-.31,2.28-.51,3.41l.8-.8C482.67,200.52,482.8,199.65,482.89,198.78Z" transform="translate(-63.02 -28.01)"/><path class="cls-1" d="M439.32,242.06v.65c.73-.08,1.47-.19,2.2-.31l.81-.81C441.33,241.77,440.33,241.93,439.32,242.06Z" transform="translate(-63.02 -28.01)"/><rect class="cls-1" x="5.44" y="454.71" width="94.04" height="0.66"/><rect class="cls-1" x="24.56" y="435.88" width="75.66" height="0.66"/><rect class="cls-1" x="42.9" y="417.04" width="57.02" height="0.66"/><rect class="cls-1" x="60.63" y="398.21" width="38.94" height="0.66"/><rect class="cls-1" x="80.1" y="379.37" width="19.82" height="0.66"/><rect class="cls-1" x="214.81" y="61.24" width="1.1" height="114.78" transform="translate(-84.1 158.06) rotate(-44.77)"/><rect class="cls-1" x="239.52" y="122.98" width="1.1" height="62.11" transform="translate(-101.7 186.5) rotate(-44.93)"/><rect class="cls-1" x="371.91" y="484.48" width="114.78" height="1.1" transform="translate(-280.07 414.79) rotate(-44.75)"/><rect class="cls-1" x="362.85" y="509.18" width="62.11" height="1.1" transform="translate(-307.98 399) rotate(-44.93)"/><rect class="cls-1" x="159.18" y="325.16" width="1.1" height="59.32" transform="translate(-258.38 485.92) rotate(-89.9)"/><rect class="cls-1" x="181.14" y="346.33" width="1.1" height="32.1" transform="translate(-243.95 515.56) rotate(-89.92)"/><rect class="cls-1" x="416.62" y="277.91" width="48.5" height="1.1" transform="translate(98.79 690.94) rotate(-89.92)"/><rect class="cls-1" x="435.31" y="259.95" width="26.24" height="1.1" transform="translate(124.3 680.57) rotate(-89.92)"/><path class="cls-1" d="M398.84,483.33a5.58,5.58,0,0,0-5.57,5.57v.18h.6v-.18a5,5,0,0,1,8.27-3.71c1,.91,1.56.6.43-.43A5.56,5.56,0,0,0,398.84,483.33Z" transform="translate(-63.02 -28.01)"/><path class="cls-1" d="M383,498.88a5.58,5.58,0,0,0-5.57,5.57v.17h.6v-.17a5,5,0,0,1,8.56-3.43c.85.89,1.38.56.41-.44A5.57,5.57,0,0,0,383,498.88Z" transform="translate(-63.02 -28.01)"/><path class="cls-1" d="M393.86,490.37v-.17h-.6v.17a5,5,0,1,1-9.94,0v-.17h-.6v.17a5.57,5.57,0,0,0,11.14,0Z" transform="translate(-63.02 -28.01)"/><path class="cls-1" d="M383,483.33a5.58,5.58,0,0,0-5.57,5.57v.18h.6v-.18a5,5,0,0,1,9.94,0v.18h.6v-.18A5.58,5.58,0,0,0,383,483.33Z" transform="translate(-63.02 -28.01)"/><path class="cls-1" d="M378,505.92v-.17h-.6v.17a5,5,0,1,1-9.93,0v-.17h-.61v.17a5.57,5.57,0,1,0,11.14,0Z" transform="translate(-63.02 -28.01)"/><path class="cls-1" d="M367.2,498.88a5.58,5.58,0,0,0-5.58,5.57v.17h.61v-.17a5,5,0,0,1,9.93,0v.17h.61v-.17A5.58,5.58,0,0,0,367.2,498.88Z" transform="translate(-63.02 -28.01)"/><path class="cls-1" d="M367.2,514.43a5.58,5.58,0,0,0-5.58,5.57v.18h.61V520a5,5,0,0,1,8.58-3.4c.84.89,1.36.53.39-.47A5.55,5.55,0,0,0,367.2,514.43Z" transform="translate(-63.02 -28.01)"/><path class="cls-1" d="M378,490.37v-.17h-.6v.17a5,5,0,1,1-9.93,0v-.17h-.61v.17a5.57,5.57,0,1,0,11.14,0Z" transform="translate(-63.02 -28.01)"/><path class="cls-1" d="M367.2,483.33a5.58,5.58,0,0,0-5.58,5.57v.18h.61v-.18a5,5,0,1,1,9.93,0v.18h.61v-.18A5.58,5.58,0,0,0,367.2,483.33Z" transform="translate(-63.02 -28.01)"/><path class="cls-1" d="M351.38,530a5.58,5.58,0,0,0-5.58,5.58v.17h.61v-.17a5,5,0,0,1,8.45-3.55c.91.91,1.46.61.45-.39A5.55,5.55,0,0,0,351.38,530Z" transform="translate(-63.02 -28.01)"/><path class="cls-1" d="M362.22,505.92v-.17h-.6v.17a5,5,0,0,1-9.94,0v-.17h-.6v.17a5.57,5.57,0,0,0,11.14,0Z" transform="translate(-63.02 -28.01)"/><path class="cls-1" d="M351.38,498.88a5.58,5.58,0,0,0-5.58,5.57v.17h.61v-.17a5,5,0,0,1,9.93,0v.17H357v-.17A5.58,5.58,0,0,0,351.38,498.88Z" transform="translate(-63.02 -28.01)"/><path class="cls-1" d="M362.22,521.47v-.17h-.6v.17a5,5,0,0,1-9.94,0v-.17h-.6v.17a5.57,5.57,0,1,0,11.14,0Z" transform="translate(-63.02 -28.01)"/><path class="cls-1" d="M351.38,514.43A5.58,5.58,0,0,0,345.8,520v.18h.61V520a5,5,0,1,1,9.93,0v.18H357V520A5.58,5.58,0,0,0,351.38,514.43Z" transform="translate(-63.02 -28.01)"/><path class="cls-1" d="M362.22,490.37v-.17h-.6v.17a5,5,0,0,1-9.94,0v-.17h-.6v.17a5.57,5.57,0,0,0,11.14,0Z" transform="translate(-63.02 -28.01)"/><path class="cls-1" d="M351.38,483.33a5.58,5.58,0,0,0-5.58,5.57v.18h.61v-.18a5,5,0,1,1,9.93,0v.18H357v-.18A5.58,5.58,0,0,0,351.38,483.33Z" transform="translate(-63.02 -28.01)"/><path class="cls-1" d="M346.4,537v-.17h-.6V537a5,5,0,0,1-9.94,0v-.17h-.6V537a5.57,5.57,0,0,0,11.14,0Z" transform="translate(-63.02 -28.01)"/><path class="cls-1" d="M335.55,530a5.58,5.58,0,0,0-5.57,5.58v.17h.61v-.17a5,5,0,1,1,9.93,0v.17h.6v-.17A5.57,5.57,0,0,0,335.55,530Z" transform="translate(-63.02 -28.01)"/><path class="cls-1" d="M346.4,505.92v-.17h-.6v.17a5,5,0,0,1-9.94,0v-.17h-.6v.17a5.57,5.57,0,0,0,11.14,0Z" transform="translate(-63.02 -28.01)"/><path class="cls-1" d="M335.55,498.88a5.58,5.58,0,0,0-5.57,5.57v.17h.61v-.17a5,5,0,0,1,9.93,0v.17h.6v-.17A5.57,5.57,0,0,0,335.55,498.88Z" transform="translate(-63.02 -28.01)"/><path class="cls-1" d="M346.4,521.47v-.17h-.6v.17a5,5,0,0,1-9.94,0v-.17h-.6v.17a5.57,5.57,0,0,0,11.14,0Z" transform="translate(-63.02 -28.01)"/><path class="cls-1" d="M335.55,514.43A5.58,5.58,0,0,0,330,520v.18h.61V520a5,5,0,1,1,9.93,0v.18h.6V520A5.57,5.57,0,0,0,335.55,514.43Z" transform="translate(-63.02 -28.01)"/><path class="cls-1" d="M346.4,490.37v-.17h-.6v.17a5,5,0,0,1-9.94,0v-.17h-.6v.17a5.57,5.57,0,0,0,11.14,0Z" transform="translate(-63.02 -28.01)"/><path class="cls-1" d="M335.55,483.33A5.58,5.58,0,0,0,330,488.9v.18h.61v-.18a5,5,0,1,1,9.93,0v.18h.6v-.18A5.57,5.57,0,0,0,335.55,483.33Z" transform="translate(-63.02 -28.01)"/><path class="cls-1" d="M330.58,537v-.17H330V537a5,5,0,0,1-9.94,0v-.17h-.6V537a5.57,5.57,0,1,0,11.14,0Z" transform="translate(-63.02 -28.01)"/><path class="cls-1" d="M319.73,530a5.58,5.58,0,0,0-5.57,5.58v.17h.6v-.17a5,5,0,0,1,9.94,0v.17h.6v-.17A5.58,5.58,0,0,0,319.73,530Z" transform="translate(-63.02 -28.01)"/><path class="cls-1" d="M330.58,505.92v-.17H330v.17a5,5,0,0,1-9.94,0v-.17h-.6v.17a5.57,5.57,0,1,0,11.14,0Z" transform="translate(-63.02 -28.01)"/><path class="cls-1" d="M319.73,498.88a5.58,5.58,0,0,0-5.57,5.57v.17h.6v-.17a5,5,0,0,1,9.94,0v.17h.6v-.17A5.58,5.58,0,0,0,319.73,498.88Z" transform="translate(-63.02 -28.01)"/><path class="cls-1" d="M330.58,521.47v-.17H330v.17a5,5,0,0,1-9.94,0v-.17h-.6v.17a5.57,5.57,0,0,0,11.14,0Z" transform="translate(-63.02 -28.01)"/><path class="cls-1" d="M319.73,514.43a5.58,5.58,0,0,0-5.57,5.57v.18h.6V520a5,5,0,1,1,9.94,0v.18h.6V520A5.58,5.58,0,0,0,319.73,514.43Z" transform="translate(-63.02 -28.01)"/><path class="cls-1" d="M330.58,490.37v-.17H330v.17a5,5,0,0,1-9.94,0v-.17h-.6v.17a5.57,5.57,0,0,0,11.14,0Z" transform="translate(-63.02 -28.01)"/><path class="cls-1" d="M319.73,483.33a5.58,5.58,0,0,0-5.57,5.57v.18h.6v-.18a5,5,0,1,1,9.94,0v.18h.6v-.18A5.58,5.58,0,0,0,319.73,483.33Z" transform="translate(-63.02 -28.01)"/><path class="cls-1" d="M314.33,396.71c.05.2.33.35.51.52l1.39,1.41c.19.18.4.34.73.63a3,3,0,0,0-1.79-2.14,3.91,3.91,0,0,0-1.16-1.62v.55A1.8,1.8,0,0,1,314.33,396.71Z" transform="translate(-63.02 -28.01)"/><path class="cls-1" d="M385.56,482.51c-.58-.72-1.43-1.33-1.49-2.4,0-.08-.12-.15-.31-.38-.12.64-.22,1.13-.29,1.54l.78.31-.12.31-1.46-.55c0,.07-.12.22-.08.29.3.57.52,1.2.87,1.73h3.14A4.34,4.34,0,0,1,385.56,482.51Z" transform="translate(-63.02 -28.01)"/><path class="cls-1" d="M394.3,481.58l-.9-.1,1.15.95-1.11-.09.88,1h.8l-.94-.61.75-.38c.14.3.28.61.41.91a.3.3,0,0,0,0,.08h1.37c-.05,0-.08-.08-.14-.12-.66-.44-1-1.36-1.49-2.07a2.2,2.2,0,0,0-.26-.27l-.84-.89s0,.08,0,.12l-1.72-1.06a1.34,1.34,0,0,1-.11.14Z" transform="translate(-63.02 -28.01)"/><path class="cls-1" d="M327.38,421a3.1,3.1,0,0,0,.94-.34,14.92,14.92,0,0,0,1.55-1.53c.57-.64.6-1.19-.08-1.65-.47-.32-.45-.66-.5-1.06,0-.13,0-.26-.05-.34l-.74.1a4.3,4.3,0,0,0,0-.62,6.2,6.2,0,0,0-.24-.73l.61-.47-.79-.19c-.11.28-.21.54-.36.89l-2-2.11c0-.15,0-.53-.09-.59-.34-.18-.67-.61-1.16-.17-.08.07-.56-.1-.69-.28a2.31,2.31,0,0,1-.21-.85c-.32.35-1.19-.52-1.23.29l1.11.45c-.35.56-.63.79-1.08.38a6,6,0,0,0-.78-.65c-.39-.25-.81-.45-1.22-.67l.15-.28,1.1.29.16-.3a1.09,1.09,0,0,1-1.43-1.11c-.45.14-.72.32-1.15-.16s-1.14-.65-1.38-1.35c0,0-.14-.12-.19-.1-.59.15-.81-.41-1-.68-.4-.58-.68-.5-1.14,0,.66-1.12-1-.61-.77-1.44l.77.21a2,2,0,0,0-1.54-1v1.74a1.16,1.16,0,0,0,.65.52.41.41,0,0,1,.21.22c.24.7.56.34.87.09l.39.31c.11-.18.17-.3.23-.4l1.08,2.32.77.54-.83.1h0l.39.56c.17.24.34.49.49.75.24.43,1,.57.82,1.39l-1.87-2-.22.12a4.08,4.08,0,0,0,.47,1c.54.61,1.15,1.15,1.72,1.72.1-.26.19-.51.27-.73l2,1.95-1.07-.13c-.12.56.62,1.48,1.16,1.31s.6.15.77.53l-1-.24,1.51,1.86c.83-.18,1.09.09.91.85a1.06,1.06,0,0,0,.16.75c.43.63.92,1.23,1.4,1.84a1.59,1.59,0,0,0,.38.43,2.11,2.11,0,0,0,2.09-.9Z" transform="translate(-63.02 -28.01)"/><path class="cls-1" d="M317.38,410.43s0,0,0,0h0s0,0,0,.05h0Z" transform="translate(-63.02 -28.01)"/><path class="cls-1" d="M320,402.78c.08.79,1.14,1.72,1.75,1.51a11,11,0,0,1-.84-1.13A.63.63,0,0,0,320,402.78Z" transform="translate(-63.02 -28.01)"/><path class="cls-1" d="M398.8,480.85l.35-.7-2.1-.37a7.17,7.17,0,0,1-.24-1.44c0-.55-.37-.82-.64-1.14-.11-.12-.47-.06-.7,0a4.33,4.33,0,0,0-.71.27,5.84,5.84,0,0,0-.22-.82c-.2-.49.24-1.29-.56-1.43a6.28,6.28,0,0,1,.12,1.24c-.09.86.24,1.3,1.1,1.33.12,0,.3.21.33.34a7.59,7.59,0,0,1,.12,1.27,6.47,6.47,0,0,1-.11.87l-.28.07,1.55,1.95.18-.15c0,.17,0,.34,0,.58a1.73,1.73,0,0,1,.25-.22l.58-.28a4.58,4.58,0,0,1,0,.64c0,.17-.08.35-.12.52h4.22c-.6-.72-1.21-1.43-1.79-2.16C399.74,480.75,399.43,480.39,398.8,480.85Zm-1.33-.69c.81-.2.81-.2,1,1.38Z" transform="translate(-63.02 -28.01)"/><path class="cls-1" d="M320,402.76a0,0,0,0,0,0,0h0Z" transform="translate(-63.02 -28.01)"/><path class="cls-1" d="M356.17,481.44a2,2,0,0,1,2.14.15c.09.09.19.23.3.24,1.45.09,2.53,1.09,3.87,1.53h.33c-.19-.38-.05-1-.86-1s-1.33-.89-1.89-1.48a.64.64,0,0,1-.11-.2c-.38-.85-1.32-1-1.94-1.59-.07-.07-.32-.07-.35,0-.25.38-1.05,0-1,.8,0,.14-.54.28-.79.4-.14-.36-.27-.64-.37-.94s-.13-.57-.22-1a2.21,2.21,0,0,1-.38-3.18l-.44-.63c-.1-.14-.2-.29-.31-.42a17.43,17.43,0,0,1-1.2-1.4,2.1,2.1,0,0,0-2.57-1,4.37,4.37,0,0,0,0,1.2c.11.37.49.64.65,1a8.2,8.2,0,0,1,.37,1.31c-.16.2-.38.51-.5.65l-.7-.75c-.17-.18-.41-.32-.48-.52a5.41,5.41,0,0,1-.31-1.52,7.59,7.59,0,0,1,.3-1.54l-1.15-1.12,1.13-.14c-.59-.25-.95-.56-.9-1.22a.37.37,0,0,0-.13-.27,6.2,6.2,0,0,1-1.71-2.61c0-.08-.14-.14-.23-.18a3.25,3.25,0,0,1-1.55-1.71c-.54-1-1.26-1.94-1.89-2.91a23.41,23.41,0,0,1-1.64-2.7,27.18,27.18,0,0,0-2.18-3.39,21.28,21.28,0,0,1-1.07-2.2c-.06-.12-.17-.28-.28-.29-.54-.09-.75-.37-.53-.88.36-.79-.38-1.19-.61-1.77a10.44,10.44,0,0,0-1-1.47c-.31-.48-.59-1-.88-1.47a.93.93,0,0,1-.1-.37c-.05-.38,0-.77-.12-1.14-.21-1-.16-2-1-2.79-.21-.18-.19-.62-.28-.94a3.48,3.48,0,0,0-.29-1,9.32,9.32,0,0,1-.94-3.08c-.24-1-.54-2-.83-2.95-.36-1.2-.76-2.39-1.05-3.6-.09-.33.13-.73.22-1.12-.05-.05-.33-.28-.3-.34a4.73,4.73,0,0,1,.62-.73c-.83-1-.77-2.42-1.07-3.73a11.14,11.14,0,0,0-.46-1.26l.55-.81c-.85,0-1.26.46-1.15,1.1.13.8-.17,1.32-1,1.41a2.49,2.49,0,0,0-1.55.86,9.88,9.88,0,0,1-2,1.59c-1,.56-1,1.56-1.1,2.41a2.64,2.64,0,0,1-.58,1.31,12.48,12.48,0,0,1-1.45,1.46c-.42.45-.78,1-1.18,1.48l-.7-.52c-.07.48-.14.82-.2,1.17-1.12.27-1.84-.27-2.29-1.38L318,434l-.38.08.54-1.85.85.36c-1.14.61-.24,1.78-1,2.43l.25.2c.22-.22.46-.43.66-.67s.38-.54.61-.77.57-.47.95-.78a8.82,8.82,0,0,0-.42-1.42,9.56,9.56,0,0,0-.85-1.29l.15-.15a2,2,0,0,1,.49.08,4.33,4.33,0,0,1,.62.36c.1-.34.22-.68.29-1a2.65,2.65,0,0,0-.06-.6c.82.22,1.26-.26,1.23-1.33l-.7.44c-.11-.53-.18-1-.31-1.48-.22-.78-.15-.87.69-.75-.27,1.06,0,1.52,1.49,1.94l-.55-1.36-.24,0,.49-.78c.17.5.31.92.47,1.35l2.29-.44a8.34,8.34,0,0,0-.06-1.65,2.67,2.67,0,0,0-.69-1.06c-.39-.46-.91-.82-1.26-1.3-.52-.7-.88-1.52-1.43-2.2-1-1.26-2.14-2.43-3.21-3.66-.48-.55-.95-1.13-1.39-1.72-.94-1.25-1.86-2.52-2.78-3.79-.23-.33-.49-.64-.75-.95V431.2l.77.55-.77.43h0v2a1.07,1.07,0,0,1,0,1.12v48.07h44.2A4.48,4.48,0,0,1,356.17,481.44Zm-12.62-9.83-.95.38c.16-.55.31-1,.45-1.5,0-.45-.72-.95.07-1.44l.55.27a2.85,2.85,0,0,0-.16.89,11.11,11.11,0,0,0,.34,1.35Zm-.09,7.49a1.86,1.86,0,0,1-.34-.9c-.14-.79-.71-1.43-.59-2.33.07-.53-.37-1.1-.42-1.67a1.54,1.54,0,0,1,.74-1.55c.26-.16.32-.47.79-.49.69,0,.79.63,1.28.77a7.31,7.31,0,0,1-.14.86l-.57,0,.85,1.31.68-.37c.16.17.36.39.57.6l-.52.37c.16.12.31.25.47.35a1.33,1.33,0,0,1,.35,1.52c-.47.65-1,1.29-1.4,1.95a5.29,5.29,0,0,0-.38.89C344.39,480,343.88,479.6,343.46,479.1Z" transform="translate(-63.02 -28.01)"/><path class="cls-1" d="M318.59,401a4.77,4.77,0,0,0-.65-.45c0,.66.69,1.46,2.06,2.25a3.09,3.09,0,0,0-.31-.69A11.53,11.53,0,0,0,318.59,401Z" transform="translate(-63.02 -28.01)"/><path class="cls-1" d="M323.33,406.37a.59.59,0,0,0,.16.41,8.06,8.06,0,0,0,.89.51c-.17-.34-.31-.66-.49-1a.58.58,0,0,0-.36-.19C323.47,406.15,323.32,406.3,323.33,406.37Z" transform="translate(-63.02 -28.01)"/><path class="cls-1" d="M317,409.58a2,2,0,0,0-.44-.51,1.61,1.61,0,0,0-.43-.17,6,6,0,0,0,.51,1.12,1.39,1.39,0,0,0,.59.32l.13.05c0-.06,0-.13-.08-.19A4.34,4.34,0,0,0,317,409.58Z" transform="translate(-63.02 -28.01)"/><path class="cls-1" d="M390.37,469.37l4.26,4.57.19-.17c-1.42-1.52-2.84-3-4.27-4.57Z" transform="translate(-63.02 -28.01)"/><path class="cls-1" d="M396.86,476.37l3.82,4.1.17-.16-3.82-4.1Z" transform="translate(-63.02 -28.01)"/><path class="cls-1" d="M403.09,482.8l-1.45-1.55-.18.16,1.38,1.63Z" transform="translate(-63.02 -28.01)"/><path class="cls-1" d="M387.83,477.27l-1.31-1.42C386.52,476.76,387.33,477.46,387.83,477.27Z" transform="translate(-63.02 -28.01)"/><path class="cls-1" d="M383.24,468.71c.36-.76-.15-1-.9-1l.71,1.06a2.81,2.81,0,0,0,0,2.17,6.78,6.78,0,0,0,.25-1A7.53,7.53,0,0,0,383.24,468.71Z" transform="translate(-63.02 -28.01)"/><path class="cls-1" d="M384.54,464.74l-.62.25a9.38,9.38,0,0,0,.92,1.23,3.62,3.62,0,0,0,.91.49,2.14,2.14,0,0,1-.13.19l-1.86-1c.08-.07-.07,0-.05.06.36.74.75,1.48,1.12,2.22.62-.24.63-.23,1.07.58l-1-.23a.49.49,0,0,1,0,.11l1.46.9c.27-.3.53-.61.84-1l-1.19-2c-.05-.09-.13-.2-.12-.28.23-.88-.36-1.4-.84-2s-.94-1.16-1.46-1.69c-.14-.15-.45-.14-.68-.2a3.4,3.4,0,0,0,.09.64C383.23,463.82,383.38,464.62,384.54,464.74Z" transform="translate(-63.02 -28.01)"/><path class="cls-1" d="M385,470.05c.18,0,.35.21.52.32l.1-.14L384.34,469c0,.58,0,.88.05,1.25C384.62,470.19,384.82,470,385,470.05Z" transform="translate(-63.02 -28.01)"/><path class="cls-1" d="M358.08,438l.45-.7h.14l-.85-.84c0,.23.06.45.08.67A2.35,2.35,0,0,0,358.08,438Z" transform="translate(-63.02 -28.01)"/><path class="cls-1" d="M358.67,438.6l.64-.66-.64-.63-.15,1.16Z" transform="translate(-63.02 -28.01)"/><path class="cls-1" d="M359.26,439.57l-2.68-2.05.52.05c.06-.4.12-.79.19-1.23l-.56-.11c-.2-.36-.37-.69-.56-1.05l.33,0-.74-.74c-.26.1-.57.22-1,.34l.63-.68L337.38,416a1.44,1.44,0,0,1-1.63,1.09c-.13.52-.27,1.06-.41,1.63.9-.11.52-.84.77-1.28a1.7,1.7,0,0,1-.06,1,4.7,4.7,0,0,1-.66.88l-.95-.67c.09.53-.42,1.14.47,1.3-.14.22-.25.39-.31.47l2,1.69.27-.29.15.13c-.27.29-.54.59-1,1.09a3.28,3.28,0,0,1,1.47-.08l.06-.06a.73.73,0,0,1,.05.09,1.77,1.77,0,0,1,1.16,1l1.53.36c-.24.14-.39.31-.54.3-.44,0-1,0-1.28-.21a5.54,5.54,0,0,1-.87-1.4l-.11,0c-.43.4-.42.63,0,1,.56.49,1.35.84,1.32,1.8l1.09-.32c0,.25.09.43.14.65.83-.83.89.23,1.26.52l.77-.31c.08.59.15,1.09.2,1.5.38-.54.74-.19,1.17.17l-1.11.34.3.51c.34,0,.51,0,.65.05a2.55,2.55,0,0,1,.35.14l.19.1.28.16h0l.06,0,.15.06h0a1,1,0,0,0,.69.06h0a1.69,1.69,0,0,1-.29-.26c.29-.47.59-.93.91-1.38,0,0,.25,0,.26,0a.64.64,0,0,1,0,.39c-.26.41-.57.81-.85,1.21h0c.63.44,1.33.81,1.3,1.74l.51-.83.48.47.11-.07c-.09-.31-.19-.62-.29-.92l.1-.05c.24.27.49.53.73.79,0,.42-1.08.65-.13,1.32l.57-1.12.25.25-.32,1.28a4.07,4.07,0,0,1,1.57.29,8.21,8.21,0,0,1,1.33,1.51l.34-.61a10,10,0,0,0-.18,1.66,8.2,8.2,0,0,0,.38,1.41c.17-.29.33-.58.49-.87l0,0h0c-.16-.34-.33-.68-.49-1l.17-.11,1.06.86-.74.28h0v0l.94.66-1.45.29c.07.87.14,1.73,1.25,2,.1,0,.2.32.22.5,0,.44,0,.88,0,1.35,1.12-.38,3.32,1.39,3.4,2.09L356,443l1.61.6c-.13-.6-.24-1.07-.34-1.53l.2-.08a5.12,5.12,0,0,1,.27.52c.15.36.18.88.44,1.08a1.18,1.18,0,0,1,.23.2.55.55,0,0,1,.11.34.9.9,0,0,1-.06.34h0c.07.3.13.6.18.81l-.56.11.16.73.74-.62.11.12-.35.62.12.19c.23-.12.63-.21.67-.38a8.17,8.17,0,0,0,.1-1.49l-.2.14-.07,0-.11.05h-.3l-.08,0-.05,0a3,3,0,0,1-.36-.26h0l.47-.1c-.21-.76.14-1.61-.54-2.22-.06-.05.05-.34.14-.5a.35.35,0,0,1,.3-.14c.09,0,.18.16.22.26.15.32.28.64.46,1-.42.66-.25,1.28.55,1.75.2.12.48.52.43.59-.55.81.13,1.17.54,1.63v0h0c0-.38,0-.77,0-1.15.5.44.36,1.23,1.16,1.38a5.36,5.36,0,0,1,0,1.09L361,446.71h0a5.75,5.75,0,0,1,.25.77,3.91,3.91,0,0,1,0,.68l-.18.17c.75.4,1.49.79,2.23,1.21a1.46,1.46,0,0,1,.36.38c.24.33.48.68.87,1.24-1,0-1.48-.93-2.38-1.05l1.9,2a4.46,4.46,0,0,0,.61-1.3c0-.3-.34-.6-.51-.91-.72-1.37-1.81-2.63-1.39-4.38a.69.69,0,0,0,0-.45,4.28,4.28,0,0,1-.75-2.5,6.45,6.45,0,0,0-.74-2.8l-1.52-1.53C359.22,438.52,359.3,439,359.26,439.57ZM336,420.37c-.11-.12-.25-.27-.25-.41,0-.42.85-.91,1.29-.79-.79.38-.87.64-.35,1.14l.5-.52.65.83C337.27,420.73,336.58,421,336,420.37Zm4,3.24c-1.2-.09-1.35-.29-1.14-1.57l.57.16-.17-.3,1.66-.21c-.18.42-.27.66-.37.9l.87.14c-.15.24-.29.49-.45.77l-.74-.67C340.13,423.12,340.06,423.37,340,423.61Zm2.51,3c-.13-.4-.25-.83-.36-1.18l1.46-.95c.14.67-.76,1.22-.34,2.08.29-.47.47-.77.65-1.08l.21.09c-.08.32-.16.64-.25,1l.4.21,0,.17h-.66c0,.26.07.53.11.79C342.87,427.69,343.52,426.29,342.5,426.62ZM347,429.5l-.94-1,.54-.21c.18.39.36.75.53,1.12Zm7.27,10.09.73.23c0-.33-.08-.64-.12-.95l.18-.06c.31.76.61,1.52,1,2.46Zm6.52.81-1.23-.95c0-.21.06-.52.12-.95l1.27,1.81Z" transform="translate(-63.02 -28.01)"/><path class="cls-1" d="M336.83,416.18l.48-.23-1.1-1.1C336.44,415.34,336.64,415.76,336.83,416.18Z" transform="translate(-63.02 -28.01)"/><path class="cls-1" d="M335.56,416.34l.09-.21c-.1-.12-.22-.24-.33-.36l-.22.09c.1.39.21.78.32,1.17a3.74,3.74,0,0,0,.59-.21c.09,0,.1-.2.17-.36Z" transform="translate(-63.02 -28.01)"/><path class="cls-1" d="M369.15,449.32a2,2,0,0,1-.64,1.49,1.18,1.18,0,0,0-.18.62c0,.44,0,.88,0,1.31l-.23.05c-.13-.42-.27-.85-.39-1.28l-.24.07a7.94,7.94,0,0,0,1,3.4c.18-.42.33-.77.49-1.11l.44.25c-.12.57-.2,1-.29,1.43l-.67-.55c.2.83.34,1.44.49,2.05s.82.81,1.07,1.21c.38.59.71.95,1.19,1,.38.65.61,1.57,1.05,1.68,1,.28.35.58.12.95l.53,0c0,.12,0,.27,0,.36.48.73,1,1.44,1.47,2.17a4.75,4.75,0,0,0,1.83,1.59c.18.09.32.23.49.31a1.83,1.83,0,0,0,.46.12s.05-.07.08-.11l-.38-.45c.53.24,1.08.49.48,1.12l.69.64a3.67,3.67,0,0,0,.36-1.22,4,4,0,0,0-.47-1.29,12.29,12.29,0,0,1-.82-1.67c-.38-1.33-.57-2.71-1-4-.78-2.4-1.69-4.76-2.54-7.14a.06.06,0,0,1,0,0L370,448.65C369.56,448.74,369.12,449,369.15,449.32ZM376.32,464c.15.34.31.67.58,1.25-.33-.14-.63-.17-.69-.3a3.91,3.91,0,0,1-.11-.91Z" transform="translate(-63.02 -28.01)"/><path class="cls-1" d="M385.47,471.13l.15.43,1.22.05C386.55,471,386.22,470.6,385.47,471.13Z" transform="translate(-63.02 -28.01)"/><path class="cls-1" d="M358.08,444.5a2.77,2.77,0,0,0-.78-.36c-.05,0-.16.14-.24.22l.47.36a4.79,4.79,0,0,0-.55.36.28.28,0,0,0,0,.27c0,.08.2.18.24.16a4.3,4.3,0,0,0,.84-.54A.5.5,0,0,0,358.08,444.5Z" transform="translate(-63.02 -28.01)"/><path class="cls-1" d="M354.5,441.54a3.42,3.42,0,0,0-.21-.43c-.05-.11-.07-.24-.15-.3a.31.31,0,0,0-.27,0,1,1,0,0,0,0,.41c.09.34.2.68.35,1.16.08,0,.42-.09.44-.19A1.51,1.51,0,0,0,354.5,441.54Z" transform="translate(-63.02 -28.01)"/><path class="cls-1" d="M359.12,451.7c.16.24.34.46.47.7s.12.48.21.71a.41.41,0,0,0,.26.22.31.31,0,0,0,.24-.18C360.51,452.58,359.75,451.65,359.12,451.7Z" transform="translate(-63.02 -28.01)"/><path class="cls-1" d="M359.62,446.48c-.22,1,0,1.55,1,1.53C360.26,447.5,359.94,447,359.62,446.48Z" transform="translate(-63.02 -28.01)"/><path class="cls-1" d="M361.76,450.58c.06-.17.06-.35,0-.41-.41-.3-.83-.58-1.26-.86a.25.25,0,0,0-.2.07,1.5,1.5,0,0,0-.18.24l-.6-.9-.56.34c.38.48.71.91,1.07,1.32,0,0,.2-.08.3-.12C360.61,451.24,361.3,450.1,361.76,450.58Z" transform="translate(-63.02 -28.01)"/><path class="cls-1" d="M368.34,463.12s0-.15,0-.23c-.17-.79-.31-1.6-.53-2.38a.71.71,0,0,0-.1-.23c-.13-.16-.29-.1-.4.25a4.38,4.38,0,0,0-1.06-3c-.1-.12-.19-.24-.3-.36-.3-.36-.52-.58-.47-1.07a5.83,5.83,0,0,0-.09-1.22c-.36-.26-.57-.43-.79-.57s-.54-.29-.78-.47a.54.54,0,0,0-.18-.1.25.25,0,0,0-.12,0h0l-.11,0h0l-.13.07h0a1.15,1.15,0,0,1-.54.29h0v0c-.19-.1-.26-.18-.24-.26s.11-.15.28-.24a2.7,2.7,0,0,0,.56-.51c0-.07-.11-.13-.17-.2l-.81.46c0-.47-.23-.68-.52-.47a1.84,1.84,0,0,0-.14-.74c-.06-.12-.38-.1-.76-.17.42.79.79,1.39.2,2l.69-.45c.33.63-.35,1.52.76,1.78.05-.43.1-.83.15-1.23h0l.7.87a1.54,1.54,0,0,0-.19,2,10.61,10.61,0,0,1,.51,1.19l.9-1.65c.7,0,.58.73.72,1.14.07.23.32.85-.36,1-.07,0-.13.52,0,.73a15,15,0,0,0,.84,1.42l-.93.23,1,1.47,1-1c-.91-.3-.5-.8-.35-1.45.18.35.27.53.35.7l.52-.08c0,.23.19.59.11.66-.66.5.1.83.12,1.15-.27.26-.67.46-.71.71s.25.61.41,1l.77-.62.17.18-.85.78c.78.09.55.49.22,1.09l1.23-.63-.91-.28C368.67,464.26,369.18,463.83,368.34,463.12Z" transform="translate(-63.02 -28.01)"/><path class="cls-1" d="M381,478.41a2.35,2.35,0,0,0,1,1.81l.28-.1c-.3-.58-.59-1.17-.91-1.73C381.41,478.34,381.18,478.4,381,478.41Z" transform="translate(-63.02 -28.01)"/><path class="cls-1" d="M351.13,435.48c-.48-.65-.85-1.18-1.33-1.85C349.84,434.61,349.87,435.37,351.13,435.48Z" transform="translate(-63.02 -28.01)"/><path class="cls-1" d="M389.51,470.06c-.23-.48-.85-.85-1.2-.67a1,1,0,0,0-1.57.38l1-.32.62.37c-.05.46-.16.88.57,1a4.76,4.76,0,0,1,1.37.77,1.56,1.56,0,0,0-.1-.53C390,470.7,389.69,470.41,389.51,470.06Z" transform="translate(-63.02 -28.01)"/><polygon class="cls-1" points="159.36 237.79 250.49 146.66 250.49 237.79 159.36 237.79"/><polygon class="cls-1" points="48.72 455.38 99.55 455.38 74.14 480.79 48.72 455.38"/><polygon class="cls-1" points="356.73 62.13 402.22 107.63 356.73 107.63 356.73 62.13"/><polygon class="cls-1" points="420.12 161.96 365.66 107.51 356.9 107.51 420.12 170.72 420.12 161.96"/><polygon class="cls-1" points="420.12 143.73 383.9 107.51 375.14 107.51 420.12 152.49 420.12 143.73"/><polygon class="cls-1" points="420.12 125.5 402.13 107.5 393.37 107.5 420.12 134.26 420.12 125.5"/><polygon class="cls-1" points="420.13 107.5 411.6 107.5 420.13 116.03 420.13 107.5"/><path class="cls-1" d="M228.3,364.74a.31.31,0,0,0,0,.1s0,0,.05,0,0-.05,0-.07S228.35,364.76,228.3,364.74Z" transform="translate(-63.02 -28.01)"/><path class="cls-1" d="M237.18,377.47a.69.69,0,0,0-.21,0s0,.07,0,.11v0l.21,0h0A1,1,0,0,1,237.18,377.47Z" transform="translate(-63.02 -28.01)"/><path class="cls-1" d="M239.61,378.39h0Z" transform="translate(-63.02 -28.01)"/><path class="cls-1" d="M231.6,366.93h.13c0-.05,0-.09,0-.09a.14.14,0,0,0-.09,0S231.61,366.9,231.6,366.93Z" transform="translate(-63.02 -28.01)"/><path class="cls-1" d="M239.72,378.73c.1-.18-.07-.24-.11-.34C239.5,378.55,239.65,378.61,239.72,378.73Z" transform="translate(-63.02 -28.01)"/><path class="cls-1" d="M202.3,356.44c-.23.07-.26.11-.27.36a2.14,2.14,0,0,1-.07.35c.15,0,.3,0,.38-.09a5.61,5.61,0,0,0,.5-.48l-.22-.22-.16,0Z" transform="translate(-63.02 -28.01)"/><path class="cls-1" d="M220.88,354.32c.05.29.25.59,0,.86,0,.08.11.15.15.23a1.54,1.54,0,0,1,.15.35c.05.33.08.66.11,1a.81.81,0,0,0,.15.52.26.26,0,0,1,.05.12,1.12,1.12,0,0,0,.67.74,4.1,4.1,0,0,1,1.28.89c.13.14.32.23.44.41a7.56,7.56,0,0,1,.58.69,3.54,3.54,0,0,0,.62.66.81.81,0,0,1,.32.61.66.66,0,0,0,.52.58c.1.13.18.25.28.37s.29.28.41.44a.35.35,0,0,1,.05.3.47.47,0,0,0,.09.43c.06.08.1.19.16.28s.16.15.27.26a2.93,2.93,0,0,1,.12-.31,2.71,2.71,0,0,1,.16-.27.55.55,0,0,0,.58-.06c0-.08-.05-.15-.08-.24a.67.67,0,0,1,.57,0c-.23.34,0,.62.13.9s.14.23-.05.31c0,0,0,.1,0,.2.29-.25.71,0,.92-.4l.06,0c0,.1-.07.2-.1.3.18.18.43.29.42.61,0,.11.1.16.21.11l.27-.14c0,.15-.09.28-.06.39s.15.23.22.35-.1.26-.28.23a.16.16,0,0,0-.13.06c-.09.17-.23.11-.43.14.12-.11.18-.18.25-.25s-.1-.25-.22-.31-.3-.14-.39-.09a.48.48,0,0,1-.39,0c0,.23.17.18.22.29s.1.25.13.37a1,1,0,0,1,0,.29,1.65,1.65,0,0,1-.06.32.68.68,0,0,0,.06.54.5.5,0,0,1,0,.21l-.07,0-.17-.26a.67.67,0,0,0-.13-.22.26.26,0,0,0-.33-.08c-.13.08-.12.2-.07.32a1.12,1.12,0,0,0,.21.37.54.54,0,0,1,.16.56.76.76,0,0,0,0,.19.66.66,0,0,0,.3-.53c.25,0,.28.16.31.32s.08.47.12.71a.64.64,0,0,0,.05.16l.55-.19a1.56,1.56,0,0,0,0,.2c-.17,0-.23.07-.25.23l-.15-.19c-.21.22-.22.32,0,.54.12-.14.2-.33.44-.34-.28.15-.12.47-.27.66.12.12.12.12.52.24,0,.16.05.34.09.52a4.76,4.76,0,0,0,.18.53.69.69,0,0,0,.2,0c.18,0,.31,0,.35.19a1.44,1.44,0,0,0,.35.71,1,1,0,0,1,.2.61c0,.21-.14.37-.22.61-.19-.2-.32-.41-.6-.25,0,.11,0,.22,0,.33l0,0a1.62,1.62,0,0,1-.1-.18c0-.05,0-.1,0-.16s0-.19-.06-.21c-.27-.08-.21-.42-.45-.52a.25.25,0,0,1-.14-.19,2.63,2.63,0,0,0-.45-1.17l-.35-.58a2.61,2.61,0,0,0-.17-.28,4,4,0,0,1-.66-1.44,2.14,2.14,0,0,1,0-.67.67.67,0,0,0-.12-.43,2.14,2.14,0,0,1-.35-.69,3.42,3.42,0,0,0-.41-.78c-.36-.59-.75-1.17-1.1-1.77a7.3,7.3,0,0,1-.69-1.47,1.79,1.79,0,0,0-.37-.54c-.15-.15-.32-.28-.48-.43s-.11-.09-.12-.14a3.28,3.28,0,0,0-1-1.4,4.54,4.54,0,0,1-.46-.6c-.18-.25-.3-.55-.6-.71,0,0-.07-.11-.11-.15a1.27,1.27,0,0,0-.27-.25c-.39-.21-.79-.4-1.17-.62a1,1,0,0,1-.28-.31c-.11-.16-.21-.33-.31-.5a.48.48,0,0,1-.07-.23,6.56,6.56,0,0,0-.23-1.25,2.08,2.08,0,0,0-.16-.4c-.17.06-.32.13-.48,0s-.14,0-.21.06l-.7.24c.07.28.06.33-.21.45s-.78.37-1.18.53a2.22,2.22,0,0,1-.45.06c-.06,0-.16,0-.18,0-.11.21-.34.2-.52.26a1.24,1.24,0,0,1-.54,0c-.12,0-.21-.16-.34-.26s-.24,0-.42-.18a.73.73,0,0,0-.37.23.39.39,0,0,1-.62,0,.67.67,0,0,0-.67-.27c-.29.05-.57.13-.85.18l-1,.15a3.18,3.18,0,0,0-.43.15c0,.21,0,.38,0,.55h-.05a1.55,1.55,0,0,0,0-.23.32.32,0,0,0-.42-.24,1.17,1.17,0,0,1-.8.1c-.05,0-.11,0-.16,0-.46,0-.48,0-.74-.39a1.11,1.11,0,0,0-.6-.38c-.35-.15-.75-.12-1.07-.36-.06,0-.17,0-.25,0a.94.94,0,0,1-.74-.26,3.49,3.49,0,0,0-.49-.33l0-.07.76.38a.85.85,0,0,1,.6.06c.16.06.31.14.48.19s.49.14.74.21.37.11.54.18a.21.21,0,0,1,.14.26c-.05.26.13.41.38.34a2.31,2.31,0,0,0,.35-.14c.2.28.46.13.71.08s.37-.1.56-.15a.81.81,0,0,0,.22-.07,5.8,5.8,0,0,1,1.07-.5c.12-.05.25-.13.37-.19l.76-.37c.05,0,.16-.05.18,0,.18.19.46,0,.63.19l-.17.18c0,.18.48,0,.63-.24l.13-.25a.72.72,0,0,0,.68,0,.23.23,0,0,1,.33.11.27.27,0,0,0,.22.08.92.92,0,0,0,.36-.13.53.53,0,0,1,.52-.11.17.17,0,0,0,.15,0,3,3,0,0,1,.52-.31,8.44,8.44,0,0,0,.89-.47,1.5,1.5,0,0,0,.25-.19s.05-.1.07-.1c.33,0,.38-.28.47-.51,0-.07.07-.13.1-.19a.24.24,0,0,0,0-.07.39.39,0,0,1-.12-.14H207.43a5.24,5.24,0,0,1-.66.47,2.12,2.12,0,0,0-.33.39l-.32.36c-.06.06-.15.1-.2.16a1.14,1.14,0,0,1-.94.48l0,.1c-.15.41,0,.65.49.63a1.22,1.22,0,0,1,.33,0,.65.65,0,0,1-.59.18l-.19-.05c-.26-.07-.51-.09-.61.22a6.12,6.12,0,0,0-.8-.09.82.82,0,0,0-.66.3,1.39,1.39,0,0,1-.87.47c-.43,0-.43,0-.68.28l-.6.12c-.11.16-.2.28-.28.41l-.05,0c0-.1,0-.2,0-.3l-.43-.21a.29.29,0,0,0-.22,0,1.46,1.46,0,0,1-.8,0,.42.42,0,0,0-.16,0,3.24,3.24,0,0,1-.29.34L210,369.38a.44.44,0,0,0,.19-.17s.17-.07.2,0a.27.27,0,0,0,.4,0,.46.46,0,0,1,.52-.05.24.24,0,0,0,.36-.1c.07-.12.17-.13.31-.13a.49.49,0,0,0,.39-.1.89.89,0,0,1,.56-.11,1.27,1.27,0,0,0,.44,0c.13,0,.26-.1.41,0s.16,0,.25,0a2,2,0,0,0,.34-.06,3.73,3.73,0,0,0,.4-.2c0,.07,0,.14-.06.24a.83.83,0,0,0,.28,0,.52.52,0,0,1,.47,0s.14,0,.21,0a2.79,2.79,0,0,0,.35-.15c0,.15-.06.24-.08.35a5,5,0,0,1-1.22,0c-.45.14-.94.05-1.4.19-.26.08-.54.08-.79.15a1.1,1.1,0,0,1-.67.08.2.2,0,0,0-.11,0c-.17.18-.38.13-.58.14a1.72,1.72,0,0,0-.93.23l0,0,9.38,9.38,0,0h0l1.29,1.28a4.34,4.34,0,0,1,.17-.69c.12-.29.09-.39-.19-.56l-.47-.29c0-.11.06-.21.08-.31,0-.36.1-.72.17-1.08a.46.46,0,0,0,0-.19,1.9,1.9,0,0,1,0-1.18,1,1,0,0,0,0-.39,2,2,0,0,1,.11-1.21.83.83,0,0,0,0-.72.63.63,0,0,1,0-.43.76.76,0,0,0-.25-.79c-.21-.2-.33-.5-.56-.72-.06-.05-.05-.2,0-.29s.13-.2.28-.24c0,.21-.08.45.15.57.06,0,.17,0,.29,0s.09.3.32.22c0,0,.07,0,.11.06l.32.22a.41.41,0,0,0,0,.44.77.77,0,0,1,0,.45,1,1,0,0,0,0,.41,1.5,1.5,0,0,1,0,.7,3.35,3.35,0,0,0,0,1.41.48.48,0,0,1,0,.26,1.72,1.72,0,0,0,0,1.12.94.94,0,0,1,0,.55,2.9,2.9,0,0,0,0,.93.42.42,0,0,0,.29.4c.36.17.38.23.28.63a1.19,1.19,0,0,0-.09.7.22.22,0,0,1,0,.16,1.21,1.21,0,0,0-.19.57l7.07,7.08v0l.08,0,0,0L241,400.34V387.19h0c-.17-.07-.22,0-.3.14a.62.62,0,0,1-.7.38c0-.1,0-.2,0-.3-.24,0-.24,0-.34.25l-.3.09c-.18-.1-.06-.24-.07-.38A.94.94,0,0,0,240,387c.05-.08.18-.11.27-.16s.08,0,.1-.09.23-.24.4-.13.13.12.2.17l0,0v-7l-.37-.11c.15.19.23.32.08.48s0,.17,0,.27a.44.44,0,0,1-.53-.07l-.43-.32c-.06.09-.09.15-.14.21a.74.74,0,0,1-.17.12s-.11-.06-.11-.09a.65.65,0,0,1,.05-.27s.09,0,.13-.07a.37.37,0,0,0-.23-.46.4.4,0,0,1-.22-.22c-.06-.23-.24-.28-.44-.35.17-.27,0-.54,0-.81a.18.18,0,0,0-.08-.14c-.24-.09-.37-.32-.58-.45s-.3-.14-.47.05-.13.12-.22.06h0c-.09.1-.16.06-.21,0h0c0,.05-.08.1-.07.15a1.64,1.64,0,0,1,0,.46,1,1,0,0,1-.15-.14c-.23-.33-.43-.67-.67-1a3.32,3.32,0,0,0-.53-.53c-.27-.23-.57-.43-.84-.66a5,5,0,0,1-.44-.48c-.1-.1-.1-.1-.28-.07,0,.08,0,.17,0,.23s-.13.09-.21.14a1.79,1.79,0,0,1-.13.88c-.09.27-.31.37-.72.39-.1-.08-.05-.17,0-.26a1.34,1.34,0,0,0,.05-.31l.3,0a.22.22,0,0,1,0,.11c0,.12-.06.23-.1.36.23,0,.26-.2.26-.35a.63.63,0,0,0-.08-.32,3.42,3.42,0,0,0-.26-.4l.15-.21c.21-.28.18-.37,0-.65s-.31-.35-.44-.53a1.51,1.51,0,0,1-.16-.68,1.55,1.55,0,0,1,0-.37c-.24,0-.19.29-.4.35s-.18-.14-.32-.24l.37-.18c0-.12-.12-.31.1-.37h0c-.11-.08-.22-.11-.31.09-.11-.2-.1-.32,0-.44.38.09.38.09.31.35h0l.17.27a1.8,1.8,0,0,1,.27.07.37.37,0,0,0,.55-.17l.16-.29-.15-.14-.1-.1c.18,0,.33.09.49,0h0a1.37,1.37,0,0,1-.18-.16.38.38,0,0,1-.11-.18c0-.08,0-.17,0-.26a1.38,1.38,0,0,0-.13-.22c.27.07.37.2.4.57l.15-.13a.13.13,0,0,1,0,.21l-.18.17h0l.14.19.24-.24c0-.15,0-.31,0-.48a.75.75,0,0,0-.16-.54.42.42,0,0,1-.07-.27.81.81,0,0,0-.17-.52,1.28,1.28,0,0,1-.13-.29c0-.18-.11-.33-.31-.39a.16.16,0,0,1-.11-.07c-.18-.41-.55-.69-.74-1.1a1.39,1.39,0,0,0-.68-.63.73.73,0,0,0-.32-.06c-.19,0-.37.06-.41.29a.63.63,0,0,1-.08.17l-.32-.12-.22.16s0,0,0-.05a.74.74,0,0,1,.37-.39.4.4,0,0,0,.17-.6c-.2-.3-.39-.61-.83-.59,0-.13,0-.23,0-.32l.49-.22c.1,0,.14.24.31.15s.19-.12.3-.19c.12-.36-.33-.41-.45-.66.32-.15.49.23.77.15l.27.64-.26.12c.08,0,.14.09.18.07s.31,0,.46.09a.18.18,0,0,1,.1.07.65.65,0,0,0,.57.3.86.86,0,0,0,0,.21.48.48,0,0,0,.14.25c.17.13.36.23.54.35,0,.41,0,.42.34.67,0,.12-.06.24-.09.4A.91.91,0,0,1,234,369a.47.47,0,0,1,.24,0,4.72,4.72,0,0,1,.5.41.22.22,0,0,1,0,.2,2.69,2.69,0,0,1-.19.32.44.44,0,0,0,.07.63c.06.05.16.1.16.15,0,.24.16.32.35.38a.51.51,0,0,0,.24.48c.07,0,.16.11.22.09.24,0,.33.11.43.32a.68.68,0,0,1-.23.07c-.1,0-.14.05-.13.14s.09.12.17.1l.26-.11c-.06.13-.09.2-.13.27s.17.37.25.56a.81.81,0,0,0,.44.5c.1,0,.16.17.23.26l.54.74a.56.56,0,0,1,.05.56.43.43,0,0,0,0,.46.6.6,0,0,1,.09.48s0,.06.05.1c.23,0,.27-.38.49-.29a2,2,0,0,1,.36.27c.27.29.7.4.9.86l-.31-.12a.52.52,0,0,0-.5,0,.22.22,0,0,0,0,.38.81.81,0,0,1,.16.16.4.4,0,0,0,.41.17c.09.22.17.44.27.65s.13.09.2.13,0-.06,0-.08a1.16,1.16,0,0,1,.17-.95,1.81,1.81,0,0,1,.35.13.84.84,0,0,0,.69.09l.11,0V353.67H221.35v0Zm6.21,9.24a.77.77,0,0,1,0,.15H227c0-.05,0-.1,0-.14Zm-10-5.78h0a.83.83,0,0,0,0,.15h-.06Zm.28.79c-.18-.08-.15-.17-.13-.25h.08A2.24,2.24,0,0,0,217.33,358.57Zm-6.24-.36a.5.5,0,0,1,.08.51C211.08,358.52,211,358.41,211.09,358.21ZM220,379c0-.2.09-.18.21-.21C220.19,379,220.08,379,220,379Zm-2.38-19.49.05,0,.12.16-.08,0Zm.14.61a.42.42,0,0,1,0-.3c.08.18.36.26.29.5s.21.36,0,.53A7.83,7.83,0,0,1,217.71,360.15Zm.39,2.66a2,2,0,0,0-.07-.5,1,1,0,0,1-.1-.46,2.55,2.55,0,0,0-.14-.56c.1.06.22.09.26.25.08.33.19.65.26,1,0,.14,0,.3,0,.44s.13.48.19.72c0,0,0,0,0,.09A1.17,1.17,0,0,1,218.1,362.81Zm-9.95,4.37c.21,0,.21,0,.4.53Zm9.49,1.09,0,.05-.15.2.3.29a1.28,1.28,0,0,1-.17.05,2,2,0,0,0-.64,0c-.1,0-.23,0-.36-.07a.38.38,0,0,0,0-.1Zm-1.39.65c.17-.22.23-.2.46.17C216.49,369.17,216.41,369,216.25,368.92Zm4.45,2.47c.08-.27.17-.53.27-.83-.17-.11-.15-.33-.2-.52a.3.3,0,0,1,0-.16.51.51,0,0,0-.1-.62,2.57,2.57,0,0,0-.61-.27.88.88,0,0,0-.16,0l-.16-.27s-.05-.1,0-.11a.15.15,0,0,0-.06-.28c-.16-.06-.29-.27-.5-.12s-.18.09-.26.14a.47.47,0,0,1-.57,0c-.07,0-.18,0-.27,0h0l.24.2c-.19-.05-.25.25-.45,0,.08-.09.15-.16.21-.24h0a.52.52,0,0,1,.57-.24.32.32,0,0,0,.33,0,1.66,1.66,0,0,1,.21-.16l.23-.1c-.07-.18-.12-.35-.2-.51a4.18,4.18,0,0,0-.29-.45c.08-.37-.24-.65-.36-1l.08-.16-.29-.53s0-.1-.06-.12c-.27-.19-.19-.48-.19-.74a1.62,1.62,0,0,1,.13-.45.37.37,0,0,1,.11.44c-.14.32,0,.47.26.62,0,.33,0,.6.4.67,0,0,0,.06,0,.08a.57.57,0,0,0,.12.57.47.47,0,0,1,.14.29,1,1,0,0,0,.39.64s.08.07.08.1c0,.33.29.55.39.84a2.33,2.33,0,0,1,.07.25.56.56,0,0,0,.36.46c0-.11.06-.2.1-.31a2.74,2.74,0,0,1,.62.7l-.2.25a.5.5,0,0,1,.26.55,1.07,1.07,0,0,0,.08.33,1.89,1.89,0,0,0-.15.46.52.52,0,0,1-.33.44c0,.09,0,.2.05.35Zm5.4,1c-.17.11-.26.34-.53.32l.49-.38Zm-4.07.39h0c-.1.12-.14,0-.19-.05s-.1-.15,0-.21l-.18-.22.05,0c0,.08.08.17.13.25l.17.26h0l.19.15-.06.06A2.39,2.39,0,0,1,222,372.74Zm17,23.52h-.08c0-.06,0-.11,0-.17H239C239,396.15,239,396.2,239,396.26Zm-1.74-2.57.11.13h0l-.22-.22,0,0Zm-8.3-5.88-.17.08,0-.07.17-.08Zm.08-.24,0,0,.18-.22,0,0-.09.13Zm9.25-.27a3.93,3.93,0,0,1-.54.19.26.26,0,0,1-.2-.11c-.05-.06,0-.16-.06-.25.19-.14.4.21.54-.08Zm.32-1.12a1.08,1.08,0,0,1-.08.19h0l0-.19ZM226,384.71a.26.26,0,0,1-.39,0C225.79,384.6,225.88,384.68,226,384.71Zm12.61-1.46a.58.58,0,0,1,.07.21c-.21.06-.32,0-.48-.17.08-.08.13-.19.21-.2S238.59,383.18,238.64,383.25Zm-10.6-.18-.2.09C227.91,383,227.91,383,228,383.07Zm10.93-.5c-.21.33-.29.33-.51,0C238.63,382.54,238.79,382.4,239,382.57Zm-7.4-.74-.57.92-.18-.21.28-.21a.5.5,0,0,1,.25-.69Zm-2.88-.44a.5.5,0,0,1,0,.13s-.06.05-.14.12l.13-.26Zm3.5-.69s0,.06.06.12-.13,0-.15,0,0-.07,0-.11S232.16,380.69,232.19,380.7Zm-2.72-.6a.35.35,0,0,1,0,.12s-.07,0-.11,0l0,0,.14-.13Zm.22-.11,0,0,.12-.14,0,.06Zm-4.64-.34a2.88,2.88,0,0,1,.92.13A1.52,1.52,0,0,1,225.05,379.65Zm13.71-.18a.56.56,0,0,1,0,.12l-.11,0s0-.09,0-.1S238.73,379.46,238.76,379.47Zm-6.45.38c-.17-.34.1-.62.09-.94l.49,0A1.45,1.45,0,0,1,232.31,379.85Zm-1-.74a.35.35,0,0,1,0-.49C231.34,378.76,231.34,378.9,231.33,379.11Zm-7.52-.17c0-.1,0-.21,0-.34.18.18.42.32.48.51s.19.42.05.59l-.73.32a.29.29,0,0,1,0-.37.37.37,0,0,0,0-.37l-.83-.16c-.14,0-.17-.13-.09-.25a3.44,3.44,0,0,1,.27-.27C223.14,378.92,223.37,379,223.81,378.94Zm-.72-2.26a.25.25,0,0,0,0-.07l.25.06,0,.09Zm14.83,1.74s0,.08,0,.08l-.29-.1C237.79,378.29,237.87,378.3,237.92,378.42Zm-14.33-.1c-.19-.16-.19-.16-.49,0a.79.79,0,0,1-.1-.21.89.89,0,0,1,0-.36c0-.14.16-.12.32,0,.11-.32.11-.32-.28-.51,0-.13.08-.09.15-.09s.07-.1.12-.17A4.52,4.52,0,0,1,223.59,378.32Zm9.53-.65a1.16,1.16,0,0,1-.46.47c0-.21,0-.21.16-.43l-.08-.23a.72.72,0,0,1,.19,0A.18.18,0,0,1,233.12,377.67Zm-.8-1.58a6,6,0,0,1-.14.76s0,.08,0,.1a3.15,3.15,0,0,0-.59,1,.67.67,0,0,1,0-.2c.1-.3.12-.62.39-.84a.11.11,0,0,0,0-.06,2.21,2.21,0,0,0,.19-1.19.86.86,0,0,1,0-.39A1,1,0,0,1,232.32,376.09Zm.5-1.34,0,0c0-.06-.05-.12-.07-.17l.09,0Zm-2.26-4.64a.31.31,0,0,1,0,.08s-.06,0-.08,0a.19.19,0,0,1,0-.1Zm.28-.76-.15,0s0,0,0-.06l.15,0A.13.13,0,0,1,230.84,369.35Zm7,6-.05,0-.06-.16,0,0A.77.77,0,0,1,237.83,375.31Zm.86-3.26s0,0,0,.05h-.06a.5.5,0,0,1,0-.13A.35.35,0,0,1,238.69,372.05Zm.25-1.45s0,.08-.05.1a.35.35,0,0,1-.15,0c0-.06.06-.11.09-.11S238.9,370.58,238.94,370.6Zm-.09-.51-.15.24-.06,0,.18-.21Zm-3.77-.07,0,0-.12-.07,0-.05Zm4.87-2.2-.16.1,0,0a1,1,0,0,1,.17-.1ZM229.59,364a.74.74,0,0,1-.45-.1c0-.08,0-.16,0-.3ZM227,363,227,363l.12-.11,0,.05Zm.42-.4-.16.27c0-.09-.09-.15-.09-.21S227.31,362.57,227.43,362.61Zm-.27-.14c0,.13-.12.16-.25.15s0-.22.13-.25S227.17,362.45,227.16,362.47Zm12.92-1c-.16.06-.3.08-.39-.07a.2.2,0,0,1,0-.08Zm-13.57-.15c.07.07.05.22.08.33s.09.09.12.14.11.2.17.3l-.06,0-.49-.31a3.75,3.75,0,0,0-.09.39c-.07-.1-.12-.14-.13-.19s-.05-.31-.09-.46a.29.29,0,0,1,.09-.34h.07C226.29,361.28,226.44,361.29,226.51,361.36Zm-.81.27c-.17-.22-.11-.33.23-.48C226.05,361.45,225.67,361.41,225.7,361.63Zm13-.81-.46-.13a.33.33,0,0,1,0-.06C238.42,360.57,238.53,360.6,238.73,360.82Zm-.94-.4a.54.54,0,0,1-.45-.28C237.53,360.13,237.56,360.15,237.79,360.42Zm-12.26-.3s0,.05,0,.1h-.16s0-.06,0-.1Zm11.7-.11c-.36.12-.57-.12-.86-.18C236.52,359.75,236.52,359.75,237.23,360Zm-1.44-.23,0,.07-.17-.05a.42.42,0,0,1,0-.1Zm-.6-.33-.11,0,0-.09h.06S235.2,359.44,235.19,359.45Zm1.67-2.38a.44.44,0,0,0-.21.35.23.23,0,0,1-.06.12c-.32.19-.36.57-.55.85a3.57,3.57,0,0,1-.27.28h0c0,.09,0,.18-.16.13l.16-.13h0a.33.33,0,0,1,0-.17c.2-.3.25-.68.52-.95a3.6,3.6,0,0,0,.38-.6.91.91,0,0,1,.13-.16C237,356.89,237,357,236.86,357.07Zm.9-2.39-.06-.05.2-.21.2-.17C238.12,354.43,238.12,354.43,237.76,354.68Z" transform="translate(-63.02 -28.01)"/><path class="cls-1" d="M204.5,355.94l.11-.07,0-.05-.12.05Z" transform="translate(-63.02 -28.01)"/><path class="cls-1" d="M214.46,356.81c0-.11,0-.21,0-.33C214.19,356.68,214.19,356.69,214.46,356.81Z" transform="translate(-63.02 -28.01)"/><path class="cls-1" d="M230.91,366.79s-.11,0-.13,0a.54.54,0,0,0-.06.18c.08,0,.16,0,.17,0A.25.25,0,0,0,230.91,366.79Z" transform="translate(-63.02 -28.01)"/><path class="cls-1" d="M233.46,374.14c.06.12.09.22.13.31s.16.18.33,0A.59.59,0,0,0,233.46,374.14Z" transform="translate(-63.02 -28.01)"/><path class="cls-1" d="M240.47,378.69l-.23-.34a.2.2,0,0,0-.27-.1c-.13.06-.11.17-.06.28l0,.05c.09.15.18.29.28.47a1.16,1.16,0,0,0,.22-.13C240.53,378.86,240.52,378.78,240.47,378.69Z" transform="translate(-63.02 -28.01)"/><path class="cls-1" d="M215.82,356.8a.28.28,0,0,0,.38,0,.27.27,0,0,0,0-.33c-.08-.07-.26,0-.39.1A.39.39,0,0,0,215.82,356.8Z" transform="translate(-63.02 -28.01)"/><path class="cls-1" d="M233,374.11c-.09.21,0,.26.13.28s0-.05.1-.08Z" transform="translate(-63.02 -28.01)"/><path class="cls-1" d="M240.83,379.2s-.09,0-.11,0-.06.15,0,.21S240.9,379.31,240.83,379.2Z" transform="translate(-63.02 -28.01)"/><path class="cls-1" d="M234.32,369.69l0,0a1.59,1.59,0,0,1,.13.13l.05-.06Z" transform="translate(-63.02 -28.01)"/><path class="cls-1" d="M232.2,367.29l-.17,0,0,.07.17,0A.64.64,0,0,0,232.2,367.29Z" transform="translate(-63.02 -28.01)"/><path class="cls-1" d="M234.94,372.8c-.12-.13-.25-.34-.54-.24a6.82,6.82,0,0,0-.1.79c0,.38.24.61.66.58,0-.25,0-.51,0-.76S234.94,373,234.94,372.8Z" transform="translate(-63.02 -28.01)"/><path class="cls-1" d="M233,373.71c0,.12.12.18.35.17a2.1,2.1,0,0,0-.24-.26S233,373.68,233,373.71Z" transform="translate(-63.02 -28.01)"/><path class="cls-1" d="M230.61,372.21c0,.12,0,.2,0,.32C230.72,372.4,230.72,372.4,230.61,372.21Z" transform="translate(-63.02 -28.01)"/><path class="cls-1" d="M231.07,373l-.28-.34C230.74,373,230.81,373,231.07,373Z" transform="translate(-63.02 -28.01)"/><path class="cls-1" d="M228.08,364.74l-.26-.13V365C227.93,365,228,364.91,228.08,364.74Z" transform="translate(-63.02 -28.01)"/><path class="cls-1" d="M228.63,364.84l.09,0s0-.07,0-.08-.05,0-.08,0S228.62,364.8,228.63,364.84Z" transform="translate(-63.02 -28.01)"/><path class="cls-1" d="M219.73,354.09a.54.54,0,0,1-.46.44c0,.07.06.15.09.15a.39.39,0,0,1,.33.38.55.55,0,0,0,.46-.1,1.86,1.86,0,0,0,.41-.43.36.36,0,0,0,.07-.47C220.5,353.86,219.79,353.87,219.73,354.09Z" transform="translate(-63.02 -28.01)"/><path class="cls-1" d="M227.92,364a.29.29,0,0,0-.1,0s0,.05,0,.09h.13S227.93,364,227.92,364Z" transform="translate(-63.02 -28.01)"/><path class="cls-1" d="M200.76,355.64a.21.21,0,0,1,.1-.09,1.56,1.56,0,0,0,.74-.39l.29-.22.18-.14.54-.42a.21.21,0,0,1,.13.07c.09.14.19.11.31.05l.43-.21c0-.1,0-.24.2-.21,0,0,.08,0,.12,0a.59.59,0,0,0,.55-.25.64.64,0,0,1,.15-.13H194.29l4.09,4.08,2-2C200.55,355.76,200.67,355.77,200.76,355.64Z" transform="translate(-63.02 -28.01)"/><path class="cls-1" d="M228.91,366.62l-.28-.57a2.07,2.07,0,0,0,.18.23.58.58,0,0,0,.14,0c0-.06,0-.13,0-.18s-.07-.08-.11-.11a.74.74,0,0,1-.33-.62l-.2.05c0,.11,0,.2.09.33l-.36-.11c0-.44-.28-.69-.61-.66l1.13,2Z" transform="translate(-63.02 -28.01)"/><path class="cls-1" d="M227.79,364.39a.27.27,0,0,0,.28.15l-.15-.28-.11.07S227.78,364.38,227.79,364.39Z" transform="translate(-63.02 -28.01)"/><path class="cls-1" d="M230.13,371.25a.38.38,0,0,0,.11-.05s0-.05,0-.08a.35.35,0,0,0-.11,0S230.13,371.19,230.13,371.25Z" transform="translate(-63.02 -28.01)"/><path class="cls-1" d="M230.27,371.53c.07.15.15.29.25.46,0-.14,0-.24,0-.33a.54.54,0,0,0-.09-.24.16.16,0,0,0-.14,0A.19.19,0,0,0,230.27,371.53Z" transform="translate(-63.02 -28.01)"/><path class="cls-1" d="M228.78,365.31a.08.08,0,0,0,.08,0c.13-.07.11-.17,0-.3C228.77,365.12,228.69,365.19,228.78,365.31Z" transform="translate(-63.02 -28.01)"/><path class="cls-1" d="M229.16,369.32c0-.13,0-.17.13-.08,0-.12.07-.24.11-.38l-.37-.08C228.94,369.16,229,369.34,229.16,369.32Z" transform="translate(-63.02 -28.01)"/><path class="cls-1" d="M229.47,370a.34.34,0,0,0,.1.25.61.61,0,0,1,.23.41l.1,0c0-.2,0-.37-.05-.57l-.15.07a.31.31,0,0,0,0-.08l.15-.24Q229.56,369.84,229.47,370Z" transform="translate(-63.02 -28.01)"/></g></svg>